<?xml version="1.0" encoding="utf-8"?>
<!-- Generator: Adobe Illustrator 23.0.2, SVG Export Plug-In . SVG Version: 6.00 Build 0)  -->
<svg version="1.1" id="Camada_1" xmlns="http://www.w3.org/2000/svg" xmlns:xlink="http://www.w3.org/1999/xlink" x="0px" y="0px"
	 viewBox="0 0 48 34.9" style="enable-background:new 0 0 48 34.9;" xml:space="preserve">
<style type="text/css">
	.st0{fill:#FFFFFF;}
</style>
<path id="surface1" class="st0" d="M41.5,4.4c0,0-5-3.9-10.9-4.4L30,1.1c5.3,1.3,7.8,3.2,10.4,5.5C35.9,4.3,31.6,2.2,24,2.2
	S12.1,4.3,7.6,6.5c2.6-2.3,5.5-4.4,10.4-5.5L17.5,0C11.3,0.6,6.5,4.4,6.5,4.4S1,12.5,0,28.4c5.6,6.5,14.2,6.5,14.2,6.5l1.8-2.4
	c-3-1.1-6.5-2.9-9.4-6.3c3.5,2.7,8.9,5.5,17.5,5.5s13.9-2.8,17.5-5.5c-3,3.4-6.4,5.3-9.4,6.3l1.8,2.4c0,0,8.6-0.1,14.2-6.5
	C47,12.5,41.5,4.4,41.5,4.4z M16.9,24c-2.1,0-3.8-2-3.8-4.4s1.7-4.4,3.8-4.4s3.8,2,3.8,4.4S19,24,16.9,24z M31.1,24
	c-2.1,0-3.8-2-3.8-4.4s1.7-4.4,3.8-4.4c2.1,0,3.8,2,3.8,4.4S33.2,24,31.1,24z"/>
</svg>
