<?xml version="1.0" encoding="utf-8"?>
<!-- Generator: Adobe Illustrator 23.0.2, SVG Export Plug-In . SVG Version: 6.00 Build 0)  -->
<svg version="1.1" id="layer" xmlns="http://www.w3.org/2000/svg" xmlns:xlink="http://www.w3.org/1999/xlink" x="0px" y="0px"
	 viewBox="0 0 453.3 257.4" style="enable-background:new 0 0 453.3 257.4;" xml:space="preserve">
<style type="text/css">
	.st0{display:none;}
	.st1{display:inline;}
	.st2{fill:#FFFFFF;}
	.st3{display:inline;fill-rule:evenodd;clip-rule:evenodd;fill:#FFFFFF;}
	.st4{display:inline;enable-background:new    ;}
	.st5{display:inline;fill:#FFFFFF;}
</style>
<g class="st0">
	<g class="st1">
		<g>
			<path class="st2" d="M300,125.6V47.8c0-1.2-1.5-1.7-2.3-0.8l-85,106.2c-0.7,0.8-0.1,2.1,1,2.1h61.4c1.7,0,3.2-0.8,4.2-2.1
				l19.4-24.2C299.5,128.1,300,126.9,300,125.6L300,125.6z M101.2,129.1l63.8,79.8c1,1.3,2.6,2,4.3,2h61.4c1.1,0,1.7-1.2,1-2
				L102.2,47.1c-0.8-0.9-2.3-0.4-2.3,0.8v77.8C100,126.9,100.4,128.1,101.2,129.1L101.2,129.1z"/>
		</g>
	</g>
</g>
<g class="st0">
	<path class="st3" d="M386.6,122.9h-40.1c-7.3,0-13.2,5.9-13.2,13.2v34.6c0,7.3,5.9,13.2,13.2,13.2h40.1c7.3,0,13.2-5.9,13.2-13.2
		v-34.6C399.8,128.8,393.9,122.9,386.6,122.9L386.6,122.9z M239.2,77.4h-4.9v-0.9c1.4,0,2.2-0.3,1.6-1.5c-0.9-1.8,3-1.7,3.6-1.3
		C240.5,74.5,239.8,76.5,239.2,77.4L239.2,77.4z M232.4,78.6h6c-0.7,1-2.5,4.4-3.7,4.4C234.2,82.4,232.6,80.2,232.4,78.6L232.4,78.6
		z M346.7,136.1h39.7v34.6h-39.7V136.1L346.7,136.1z M265.2,136.1h55.3l0,0c0-7.3-5.9-13.2-13.2-13.2h-42.4
		c-7.3,0-13.2,5.9-13.2,13.2v34.6c0,7.3,5.9,13.2,13.2,13.2h42.4c7.3,0,13.2-5.9,13.2-13.2v-22.8h-44.9l0,0
		c0,5.6,4.6,10.2,10.2,10.2h22.1v12.6h-42.7V136.1L265.2,136.1z M92.7,136.1h52.8l0,0c0-7.3-5.9-13.2-13.2-13.2H91.4
		c-7.3,0-13.2,5.9-13.2,13.2v10.7c0,7.3,5.9,13.2,13.2,13.2h40.9v10.7H78.2l0,0c0,7.3,5.9,13.2,13.2,13.2h42.2
		c7.3,0,13.2-5.9,13.2-13.2V160c0-7.3-5.9-13.2-13.2-13.2H92.7V136.1L92.7,136.1z M16.7,136.1h49.8l0,0c0-7.3-5.9-13.2-13.2-13.2
		H13.2c-7.3,0-13.2,5.9-13.2,13.2v34.6c0,7.3,5.9,13.2,13.2,13.2h40.1c7.3,0,13.2-5.9,13.2-13.2l0,0H16.7V136.1L16.7,136.1z
		 M251.9,71.4c-0.3,0.1-0.6,0.3-1,0.3c-1.9,2.7-0.7,2.4-4.1,4.6c0,4.5,0.1,4.9,1.2,8.9c0,0.1,0,0.2,0,0.3c-0.1,0.1-0.1,0.1-0.2,0.2
		c-0.8,0.2-2,0.5-2.6,0.6c0,0.1,0.3,2.7,0,4.6c-0.6,3-7.6,9.4-9.3,9.8c-2.3,0.5-4.9-1.6-9-3.4c-1.1-0.5-4.9-3-6.8-3.6
		c-1.6-0.5-3.3,3.4-1.2,4.5c0.9,0.5,2.4,1.2,2.9,2.4c1.4,3.7-0.2,17.7-3.1,20.6c-1.4,0-2.5-1.3-3.6-0.9c-1.8,1-0.7,6.6,0,7.6
		c11.2,11.6,9.9,20.1,14.7,26.5c2.2,0,0.7,2.3,2.4,5c0.4,1.4-0.1,3.8-0.4,4.6c0,1.2,0,2.3,0,3.5c-0.1,0.4-0.2,0.7-0.4,1.1
		c0,1,0,2,0,3.1c-0.3,1.5-0.7,3.5-1,4.9c-0.7,2.9,1.9,5.2,0.4,8c0,1.7,0,1.4-1,2.8c0,2.7-0.6,8.3,0,10.2c0.4,1.4,5.4,7.2,6.7,7.8
		c3,1.3,7.5,1.1,6,5.8c-8.8,2.7-14.5-1.5-19.2-1.6l-0.2,0.8c-3,0-5.4-0.7-6.1-1c0-0.8,1-7.1,1.3-8.1c0.3-0.5,0.7-1.1,1-1.6
		c0.4-1.1-0.4-8.9-0.4-11c-1.9-1.4-2.3-5.6-2.3-7.9c-0.5-1.8-0.5-3.9-0.7-6.2c-0.1-1.1-0.7-2.7-0.3-4.1c0.3-0.9,1.3-1.3,1.6-2.1
		c0-0.9,0-1.7,0-2.6c0.5-2.8,0.3-4-1.3-5.7c-4.1,0.1-4.7,0.3-7-3.3c-0.7-1.1-6.5-10.2-7-10.5c-4.8-2.1-3.9-1.3-6-5
		c-0.1,0-1.4,0.4-2.5,2.1c-1.7,2.6-4.8,10.9-5.6,13.9c-0.5,1.6,0,3.4-0.7,4.8c-0.5,1-2.2,1.3-2.6,2c-1.7,3-0.4,2.8-3.6,4.9
		c-0.6,0.7-0.6,1.9-1,2.8c-0.2,0.3-0.5,0.7-0.7,1c-0.5,1.2,0.6,3.3,0.4,4c-0.6,1.9-1.3,3.8-2,5.6c-1.5,3.5-1.3,8.1-2.8,10.3
		c-0.7,1.1-2.5,0-3.9,0.9c-0.1,0.7-2.3,5.7-2.7,7.1c0,2.6,0,5.3,0,7.9c0.4,1.3,1.5,2.6,1.2,4.3c-0.4,1.8-6.6,1.8-10,1.3
		c-2.3-0.3-3-2-2.9-3.9c0-2.3,4.7-17.1,4.4-18.1c-3.5-3.9,0.9-8,2.3-11.7c0.6-1.8,0.2-4.3,0.9-6c1.2-2.3,2.5-4.5,3.7-6.8
		c2.3-2.1,1.2-2.2,2.5-4.1c1.1-1.7,2.3-2.8,1.6-5.3c-1.5-5.1,1.7-12.3,2-17.7c-0.6-0.6-2.5-0.4-2.8-2c-0.5-3.3,1.3-9.2,2.3-9.7
		c0.5-0.2,1,0,1.5-0.3c0-2.5-2.5-16.3-0.6-17c1.2-0.4,3.8-0.7,4.3-0.9c0-0.6-0.4-1.8-0.9-1.9c-0.8-0.1-2.5-0.4-3.9-0.7
		c-4.1-1-0.3-17.2-0.3-17.3c1.1-1.5,6.4,0.5,7-2c1.8-2.2-1.4-10.9,4.7-21.6c2-3.6,5.9-7.2,10.5-5.7c1.5,0.5,0.6,2.7,3.3,0.4
		c0.1-1.4-0.6-2.5-0.9-3.6c-4.4-13.2,10.6-20.4,21.1-12.9c1.2,0.5,1.9,0.7,2.8,1.4c0.6,3,3.6,8.3,0.6,11.8c-1.2,0.3-2.7,0.9-3.6,1.6
		c0,1.2,0.1,2.3,0.4,3.1c0.2,0.7,0.6,0.9-0.4,1.3c-0.1,0-0.1,0.5,0,0.6c2.5,0.5,5.1-0.5,6.7-1.1h2v-2.5h0.5h0.4v-1.9h0.9V63h2.4v1.1
		h36.3V66h1.6v-6.9h1.3v5.6h3.1v3.2h9.6v-1h1.6V67h4.5v2.7h-4.5v0.4h-1.6v-1H274v1c-1.4,0-2.8,0-4.2,0v-0.6H268v1.9H251.9
		L251.9,71.4z"/>
</g>
<g class="st0">
	<g id="_x23_000000ff" class="st1">
		<path id="path3019" class="st2" d="M11.6,96.8c7.9-3.9,17.2-4,25.7-2.2c6.4,1.5,13.3,5.2,15.7,11.8c2.4,7.6,1.9,15.6,1.9,23.4
			c-7.7,0-15.5,0-23.2,0c-0.2-6.5,0.4-13-0.3-19.5c0.1-4.5-7.8-4.4-7.7,0c-0.8,10.2-0.2,20.4-0.4,30.6c0.2,6.5-0.5,13.1,0.6,19.6
			c0.6,2.6,3.9,2.8,5.9,1.9c1.6-1.1,1.6-3.2,1.8-4.9c0.3-4.8,0.1-9.7,0.1-14.5c7.7,0,15.5,0,23.2,0c-0.2,7.4,0.4,15.2-2.7,22.1
			c-5.1,8.5-15.8,11.7-25.3,11.4c-8.3-0.1-17.8-2-23-9.2c-3.7-5.8-3.6-13-3.9-19.6c0.1-11.7-0.4-23.5,0.4-35.2
			C1,105.6,5.6,99.7,11.6,96.8z"/>
		<path id="path3021" class="st2" d="M67.5,95c11.2-0.2,22.5-0.1,33.7,0c4.3,26.6,8.8,53.2,13.2,79.8c-7.2,0-14.5,0-21.7,0
			c-0.6-5-1.1-10-1.9-14.9c-2.6,0-5.2,0-7.7,0c0.5-4.5,1-8.9,1.4-13.4c1.6,0,3.2,0,4.8,0c-1.4-11.4-2.5-22.8-4.3-34.2
			c-2.3,20.9-5,41.7-7.5,62.5c-7.2,0-14.5,0-21.8,0C59.6,148.1,63.7,121.6,67.5,95z"/>
		<path id="path3023" class="st2" d="M118.3,94.9c7.7,0,15.4,0,23.1,0c0,21.3,0,42.5,0,63.8c4.7,0,9.4,0,14.1,0c0,5.3,0,10.7,0,16
			c-12.4,0-24.8,0-37.2,0C118.3,148.1,118.3,121.5,118.3,94.9L118.3,94.9z"/>
		<path id="path3025" class="st2" d="M161,94.9c7.7,0,15.4,0,23.2,0c0,21.3,0,42.5,0,63.8c4.7,0,9.3,0,14,0c0,5.3,0,10.7,0,16
			c-12.4,0-24.8,0-37.1,0C161,148.1,161,121.5,161,94.9z"/>
		<path id="path3027" class="st2" d="M226.9,94.9c10.2-0.1,20.4,0,30.6,0.5c5.4,0.4,11,0.8,15.8,3.5c4.3,2.6,7,7.5,7,12.5
			c0.7,13.9,0.3,27.8,0.3,41.7c-0.3,5.7,0.3,12.4-3.8,17c-4.6,4.2-11.3,4.4-17.2,4.7c-10.9,0.1-21.8,0-32.7,0
			C226.9,148.1,226.9,121.5,226.9,94.9 M250,108.6c0,17.5,0,35,0,52.6c2.2-0.5,5.6,0,6.5-2.6c1.4-5.8,0.6-11.8,0.8-17.6
			c-0.2-9.6,0.4-19.3-0.3-28.9C256.7,108.6,252.6,108.7,250,108.6z"/>
		<path id="path3029" class="st2" d="M286.4,94.9c7.7,0,15.4,0,23,0c0,19.4,0,38.8,0,58.2c0,2.6,0,5.2,0.5,7.7
			c0.4,2.9,5.5,2.8,5.7-0.1c0.5-2.5,0.5-5.1,0.5-7.6c0-19.4,0-38.7,0-58.1c7.7,0,15.4,0,23,0c0,18.6,0.1,37.3,0,55.9
			c-0.2,5.1,0.3,10.8-2.7,15.2c-3.6,6.1-10.7,9.2-17.5,9.9c-8.6,1-18,0-25.3-5.2c-4.6-3.2-6.9-8.8-6.9-14.3
			C286.1,135.9,286.5,115.4,286.4,94.9z"/>
		<path id="path3031" class="st2" d="M344,94.9c16.9,0,33.8,0,50.7,0c0,5.3,0,10.7,0,16c-4.6,0-9.2,0-13.7,0c0,21.3,0,42.5,0,63.8
			c-7.7,0-15.5,0-23.2,0c0-21.3,0-42.5,0-63.8c-4.6,0-9.1,0-13.7,0C344,105.6,344,100.2,344,94.9z"/>
		<path id="path3033" class="st2" d="M398.9,94.9c7.1,0.1,14.2-0.2,21.3,0.1c4.4,14.3,9.1,28.5,13.7,42.8c1,3.5,2.8,7,2.6,10.7
			c-0.1,8.8,0,17.7,0,26.5c-7.1,0-14.2,0-21.3,0c0-8.5,0-17,0-25.5c0-1.9-0.1-3.8-0.7-5.7C409.2,127.6,404.1,111.3,398.9,94.9z"/>
		<path id="path3035" class="st2" d="M432.1,94.9c7.1,0,14.1,0,21.2,0c-5,15.1-9.9,30.2-14.9,45.4c-3.2-10.1-6.7-20.1-9.6-30.2
			C429.5,104.9,431.1,99.9,432.1,94.9z"/>
		<path id="path3037" class="st2" d="M195.5,114c4.1-1.8,10.1-0.1,10.8,4.8c0.4,5.9,0.5,11.9,0,17.8c-1.2,6.8-12.6,7.1-14.4,0.5
			c-0.9-5.3-0.4-10.7-0.4-16C191.4,118.3,192.7,115.2,195.5,114 M198.3,117.8c-0.5,6.5-0.3,13.1-0.1,19.6l1.5-0.5
			c0.7-6,0.5-12.2,0.1-18.2C199.5,118.5,198.7,118,198.3,117.8z"/>
		<path id="path3039" class="st2" d="M208.7,114c3.5,0,7,0,10.5,0c0,1.8,0,3.6,0,5.4c-1.4,0-2.8,0-4.2,0c0,1.7,0,3.5,0,5.2
			c1.3,0,2.5,0,3.8,0c0,1.7,0,3.3,0,5c-1.3,0-2.6,0-3.8,0c0,3.9,0,7.7,0,11.6c-2.1,0-4.1,0-6.2,0C208.7,132.2,208.8,123.1,208.7,114
			z"/>
	</g>
	<g class="st4">
		<path class="st2" d="M444.8,167.6c1.5,0,2.7,0.5,3.7,1.4s1.4,2,1.4,3.3s-0.5,2.4-1.5,3.3c-1,0.9-2.2,1.4-3.5,1.4
			c-1.4,0-2.6-0.5-3.5-1.4c-1-0.9-1.5-2-1.5-3.3c0-0.9,0.3-1.8,0.8-2.5c0.5-0.8,1.2-1.3,1.9-1.7
			C443.4,167.8,444.1,167.6,444.8,167.6z M445,168.5c-1.2,0-2.2,0.4-3,1.1c-0.8,0.8-1.1,1.7-1.1,2.7s0.4,1.9,1.2,2.7
			c0.8,0.7,1.7,1.1,2.8,1.1c1.1,0,2-0.4,2.8-1.1c0.8-0.7,1.2-1.6,1.2-2.7c0-0.7-0.2-1.4-0.6-2s-0.9-1.1-1.5-1.4
			C446.2,168.7,445.6,168.5,445,168.5z M442.7,174.8v-5h2.5c0.6,0,1.1,0.1,1.4,0.4c0.3,0.3,0.4,0.6,0.4,1s-0.1,0.7-0.4,0.9
			c-0.2,0.2-0.6,0.4-1.1,0.5c0.2,0.1,0.4,0.2,0.5,0.3s0.3,0.4,0.6,0.9l0.6,1H446l-0.4-0.8c-0.3-0.5-0.5-0.8-0.7-1s-0.5-0.3-0.8-0.3
			h-0.3v2.1L442.7,174.8L442.7,174.8L442.7,174.8z M443.8,172h0.9c0.4,0,0.7-0.1,0.9-0.2c0.2-0.1,0.3-0.3,0.3-0.5s-0.1-0.4-0.3-0.5
			c-0.2-0.1-0.5-0.2-0.8-0.2h-1V172L443.8,172L443.8,172z"/>
	</g>
</g>
<g id="g24" transform="translate(66.538619,-177.1609)" class="st0">
	<path id="path4-9" class="st5" d="M-48.1,250.3c0.2,0.3,0.4,0.1,0.7,0.1c3.8,0,7.6,0.1,11.4,0c3.4-0.1,6.8,0.2,10.3,0.2
		c1.4,0,2.8-0.2,4.2-0.2c0.4,0,0.7,0.1,0.6,0.6c-0.2,2.7-0.1,5.5-0.2,8.2c-0.2,5.2-0.1,10.3-0.1,15.5c0,0.7-0.1,0.8-0.8,0.7
		c-0.4-0.1-0.7-0.1-1.1-0.1c-2.9,0-5.7-0.1-8.6,0c-2.4,0.1-4.8,0.1-7.2,0.1c-0.7,0-1.5,0.1-2.2,0.1c-0.4,0-0.4,0.2-0.4,0.5
		c0,1.7,0,3.5,0,5.3c0,3.6,0,7.2,0,10.8c0,0.6,0.1,0.8,0.7,0.7c1.9-0.1,3.8,0.1,5.7-0.1c1.6-0.1,3.3,0.1,4.9-0.2
		c1.4-0.2,2.9,0.1,4.3-0.2c0.2-0.1,0.2,0,0.2,0.2c0,0.1,0,0.2,0,0.3c0,3.3,0.1,6.6,0,9.9c-0.1,2.2-0.2,4.4-0.3,6.5
		c-0.1,1.5-0.1,3-0.1,4.5c0,0.6,0.2,1.2,0.2,1.8c0,0.6-0.2,0.7-0.7,0.6c-2.2-0.3-4.5-0.1-6.7-0.1c-1.3-0.1-2.7,0-4.1,0
		c-1.2-0.1-2.4,0.3-3.6,0.1c0.1,0.4,0.1,0.9,0.1,1.3c0,2.4-0.1,4.8,0,7.1c0.2,4.5-0.1,9.1,0.2,13.7c0.2,3.6-0.1,7.2,0.1,10.8
		c0.1,2.1-0.1,4.3,0.2,6.3c0.1,1-0.2,1-1,1.2c-2.5,0.5-5,1-7.5,1.6c-2.2,0.4-4.5,1-6.7,1.5c-2.5,0.5-4.9,1-7.4,1.5
		c-0.6,0.1-1.1,0.2-1.6,0.4c-0.7,0.2-0.9,0.1-0.9-0.7c0-5,0.1-10.1,0-15.2c-0.2-9.2,0.1-18.4-0.2-27.7c-0.1-4,0.1-8-0.1-11.9
		s0.1-7.7-0.1-11.6c-0.2-3.6,0.1-7.3-0.1-10.9c-0.2-3.1,0.1-6.3-0.1-9.4c-0.2-2.9,0.1-5.7-0.1-8.5c-0.2-2.6-0.1-5.2-0.1-7.7
		c0-0.2,0.1-0.4-0.1-0.4c0-2.2,0-4.4,0-6.6c0-0.5,0.2-0.6,0.6-0.6C-60.1,250.3-54.1,250.3-48.1,250.3L-48.1,250.3z"/>
	<path id="path6-2" class="st5" d="M169,305.5c0.4,1.6,0,3.3,0.3,5c0,0.1,0,0.1,0,0.2c0.1,2,0.1,3.9,0.2,5.8
		c0.1,2.4,0.2,4.7,0.3,7.1c0.1,1.8,0.2,3.7,0.3,5.6c0.1,1.8,0.2,3.5,0.3,5.3c0.1,1.5,0.2,3,0.3,4.5c0.1,2.3,0.3,4.5,0.4,6.8
		c0.1,1.3,0.1,1.3-1.2,1.3c-2,0.1-3.9-0.1-5.8-0.2c-1.6-0.1-3.2,0-4.8-0.1c-3.5-0.3-6.9-0.1-10.5-0.1c-0.4,0-0.6-0.1-0.6-0.6
		c0-2.2-0.1-4.4,0-6.6c0.3-11.1,0.2-22.3,0.1-33.4c-0.2-15.1,0-30.3-0.1-45.4c0-0.7,0.1-0.8,0.8-0.9c1.4-0.1,2.8-0.4,4.2-0.7
		c1.6-0.3,3.3-0.6,4.9-1c2.2-0.4,4.4-0.8,6.6-1.2c1.5-0.3,3.1-0.4,4.6-0.7c0.2-0.1,0.3,0.1,0.4,0.3c0.8,2.4,1.7,4.8,2.6,7.1
		c1.6,4.4,3.1,8.9,4.6,13.3c1,3,2,5.9,3.1,8.9c1.7,5,3.5,10,5.3,15.1c0.2,0.5,0.3,1,0.6,1.5c-0.3-1.3,0-2.6-0.2-3.8
		c0-0.1-0.1-0.2-0.1-0.3c0.1-1.3-0.1-2.7-0.2-4c-0.1-2.3-0.3-4.6-0.4-6.9c-0.1-1.3-0.1-2.7-0.3-4c-0.2-2.2-0.3-4.4-0.5-6.6
		c-0.1-1.3-0.2-2.6-0.3-3.8c-0.2-1.7-0.3-3.5-0.5-5.3c-0.1-1.2-0.2-2.4-0.3-3.6c-0.2-1.8-0.3-3.5-0.5-5.3c-0.1-0.8-0.2-1.7-0.2-2.6
		c0.1-0.3-0.3-0.7-0.1-1c0.3-0.2,0.8-0.1,1.2-0.1c6.3,0.3,12.7,0.1,19,0.1c0.5,0,1-0.1,1.5-0.1c0.3-0.1,0.4,0.1,0.4,0.4
		c0,0.2,0,0.3,0,0.4c0,28.8,0,57.6,0,86.4c0,1.7,0.1,3.5,0.1,5.2c0,0.4-0.1,0.5-0.5,0.5c-1.4,0.1-2.8,0.4-4.3,0.5
		c-1.1,0.1-2.1,0.2-3.2,0.3c-1.5,0.1-3,0.4-4.4,0.5c-0.9,0.1-1.8,0.2-2.7,0.3c-1.1,0.1-2.1,0.2-3.1,0.3c-0.4,0.1-0.6-0.1-0.7-0.5
		c-1.2-3.5-2.4-6.9-3.6-10.4c-1-2.7-2-5.3-3.1-8c-1.3-3-2.5-6.1-3.6-9.2c-1.3-3.9-2.8-7.7-4.2-11.5
		C170.3,308.9,169.7,307.2,169,305.5C169.1,305.5,169.1,305.5,169,305.5L169,305.5z"/>
	<path id="path8-3" class="st5" d="M50.3,257.1c-2.3,0-4.7,0-7,0.2c-1.1,0.1-2.1,0.1-3.1,0.2c-0.5,0-0.8,0.1-0.8,0.7
		c0,1.8,0.1,3.6-0.1,5.5c-0.2,3.5,0.1,7.1-0.2,10.6c-0.2,2.4,0.1,4.8-0.1,7.2c-0.2,2.7-0.1,5.4-0.1,8.2c-0.2,6.9,0.1,13.8-0.2,20.8
		c-0.2,5.1,0.1,10.3-0.1,15.3c-0.2,4.3,0.1,8.7-0.1,13c-0.2,3-0.1,6-0.1,9c0,0.4,0.1,0.5,0.5,0.5c1.7,0,3.4-0.1,5.2-0.1
		c2.9-0.1,5.9,0,8.9,0c3.2,0,6.4-0.1,9.7-0.1c0.5,0,0.7-0.1,0.6-0.6c-0.1-0.6-0.1-1.3-0.1-2c-0.1-2.4,0.1-4.9-0.1-7.3
		c-0.2-2.4-0.1-4.8-0.1-7.2c-0.1-3.4-0.2-6.8-0.2-10.3c0-1.3,0-1.3,1.3-1.3c0.3,0,0.4,0.2,0.5,0.4l2.7,10.1
		c0.9,3.4,1.8,6.7,2.8,10.1c1.1,3.7,2,7.5,2.9,11.2c0.1,0.4,0.2,0.6,0.6,0.6c0.7-0.1,1.4-0.1,2.1-0.1c1.7-0.1,3.4-0.2,5-0.3
		c2-0.1,3.9-0.2,5.8-0.4c1.7-0.1,3.5-0.3,5.3-0.4c1.9-0.1,3.8-0.3,5.7-0.3c0.7,0,0.8-0.1,0.6-0.8c-1.1-2.9-2.2-5.9-3.2-8.8
		c-1.8-4.9-3.8-9.7-5.4-14.6c-1.5-4.4-3-8.8-4.3-13.2c-0.1-0.3-0.1-0.6,0.2-0.7c1.6-1.2,3-2.6,4.3-4.1c1.3-1.6,2.5-3.3,3.4-5.2
		c1.8-3.5,2.4-7.4,2.5-11.3c0.1-3.7,0.2-7.4-0.8-11c-0.8-3.3-2.1-6.5-4-9.4c-1.7-2.7-3.9-5.2-6.2-7.5c-2.4-2.3-5-4-8.2-4.9
		c-3.2-1-6.5-1.2-9.7-1.3c-3.2-0.2-6.3-0.1-9.5-0.1C55,257.2,52.7,257.1,50.3,257.1L50.3,257.1z M63,277.9c1.7,0,3.3,0.5,4.6,1.7
		c1.2,1.1,1.8,2.6,2.3,4.1c0.7,2.5,1,5,1,7.4c0.1,2.5-0.1,4.8-1,7c-1,2.7-2.9,4.5-5.8,5c-0.1,0-0.1,0.1-0.2,0.1
		c-1,0.3-1.2,0.1-1.2-0.9c0.1-2.6-0.1-5.3-0.2-7.9c-0.1-1.8,0.1-3.6-0.1-5.5c-0.3-3.4-0.1-6.9-0.1-10.3
		C62.4,278,62.4,277.9,63,277.9z"/>
	<path id="path10-7" class="st5" d="M7.4,256.8c-2.9,0-5,0.2-7.1,0.6c-1.9,0.3-3.8,0.8-5.5,1.7c-2.9,1.3-5.3,3.2-7.5,5.5
		c-1.5,1.7-2.7,3.6-3.8,5.6c-1.2,2.2-2.1,4.6-2.8,7c-1,3.2-1.6,6.5-2,9.9c-0.2,1.6-0.4,3.3-0.6,4.9c-0.2,2.3-0.3,4.6-0.4,7
		c-0.1,1.7,0,3.4,0,5c0,3.1-0.1,6.3,0.2,9.5c0.2,1.9,0.4,3.9,0.6,5.8c0.2,1.6,0.4,3.2,0.7,4.9c0.5,2.7,1.2,5.3,2.1,7.9
		c0.9,2.5,2,4.8,3.4,7c1.2,1.9,2.6,3.6,4.4,5.2c1.2,1.1,2.5,2,3.9,2.8c4,2.2,8.4,2.9,12.9,3.1c1,0,1.8-0.1,2.8-0.1
		c1.7-0.1,3.4-0.3,5-0.6c2.2-0.4,4.5-1.1,6.6-2.1c2.8-1.4,5.2-3.3,7.1-5.8c1.7-2.2,3-4.5,4-7.1c1-2.3,1.6-4.6,2.2-7.1
		c0.4-2,0.8-3.9,1.1-5.9c0.3-1.8,0.5-3.8,0.7-5.6c0.2-2.2,0.3-4.4,0.4-6.7c0.1-1.8,0.1-3.6,0-5.4c-0.1-2.4,0.1-4.8-0.1-7.1
		c-0.1-1.6-0.2-3.1-0.3-4.7c-0.1-1.5-0.3-3-0.4-4.5c-0.2-2.4-0.6-4.6-1-6.9c-0.6-3.2-1.6-6.3-2.9-9.3c-1.7-3.7-4-7-7.3-9.5
		c-1.7-1.3-3.6-2.4-5.7-3.1C14.5,257.3,10.7,256.9,7.4,256.8z M6.8,275.3c0.7,0,1.4,0.5,1.9,1.3c0.6,1.1,0.8,2.3,1,3.5
		c0.2,1.1,0.2,2.2,0.3,3.2c0.2,1,0.2,2.1,0.3,3.2c0.2,2.1,0,4.1,0.1,6.2c0.3,6.7,0.1,13.4,0.1,20.1c0,2.2,0,4.4-0.1,6.6
		c-0.1,1.6-0.1,3.1-0.2,4.7c-0.2,2.2-0.3,4.5-1.1,6.6c-0.5,1.6-1.7,2.2-3,1.6c-0.9-0.4-1.3-1.2-1.6-2.1c-0.5-1.7-0.7-3.5-0.8-5.2
		c-0.2-2.2-0.3-4.4-0.4-6.6c-0.1-1.6,0-3.3-0.1-4.9C2.9,306.9,3,300.3,3,293.7c0-2.1,0-4.1,0.1-6.2c0.1-1.6,0.1-3.2,0.3-4.8
		c0.2-1.7,0.3-3.4,0.8-5.1c0.3-1,0.8-1.8,1.8-2.2C6.3,275.4,6.6,275.3,6.8,275.3L6.8,275.3z"/>
	<path id="path12-0" class="st5" d="M333,263c0,3.4-0.1,6.7,0,10.1c0,1.7,0.2,3.5,0.3,5.2c0,0.4-0.1,0.5-0.5,0.5
		c-2.6,0-5.2,0.1-7.8,0.1c-3.3,0.1-6.6,0.1-9.9,0.1c-1,0-1,0-1,1s-0.2,1.9-0.2,2.9c0.3,3.9,0.1,7.8,0.1,11.7c0,0.3,0.1,0.4,0.4,0.4
		c3.6,0,7.2,0.1,10.8-0.1c1.3-0.1,2.7,0,4.1-0.1c0.5-0.1,0.6,0.1,0.6,0.6c0,5.1-0.1,10.2,0,15.3c0,1.3,0.1,2.7,0.1,4.1
		c0,0.3-0.1,0.4-0.4,0.4c-3.3,0-6.6,0.1-9.9-0.1c-1.6-0.1-3.1,0-4.6-0.1c-0.4,0-0.5,0.1-0.5,0.5c0,2.4-0.1,4.8,0.1,7.3
		c0.1,2.2,0.2,4.5,0.2,6.7c0,0.5,0.2,0.7,0.8,0.8c2.5,0.1,5,0.3,7.6,0.4c1.4,0.1,2.8,0.2,4.3,0.3c1.7,0.1,3.4,0.1,5.1,0.2
		c0.3,0,0.3,0.2,0.3,0.4c0,1,0.1,2-0.1,3.1c-0.1,0.4,0,0.8,0,1.2c-0.2,7.3-0.1,14.6-0.1,22c0,0.4-0.1,0.6-0.6,0.6
		c-1.7-0.2-3.4-0.2-5-0.4c-0.7-0.1-1.3-0.1-2-0.1c-1.5-0.2-3.1-0.2-4.6-0.3c-2-0.2-4-0.2-6.1-0.5c-0.6-0.1-1.3-0.1-1.9-0.1
		c-1.5-0.2-3.1-0.2-4.6-0.3c-2-0.2-4.1-0.4-6.1-0.5c-0.8-0.1-1.7-0.1-2.5-0.2c-2.6-0.1-5.2-0.4-7.8-0.4c-0.4,0-0.6-0.2-0.6-0.6
		c0-2.2,0.1-4.4,0.2-6.6c0.1-1.9,0.2-3.8,0.3-5.7c0.1-2,0.2-3.9,0.3-5.8c0.1-1.2,0-2.5,0.1-3.6c0.3-4.5,0.2-9,0.1-13.6
		c-0.1-4.4,0.1-8.7-0.1-13.1c-0.2-3.7,0.1-7.4-0.1-11.1c-0.2-4.6,0.1-9.2-0.2-13.7c-0.2-3.8,0.1-7.5-0.1-11.2
		c-0.2-4.3-0.1-8.5-0.1-12.7c0-0.6-0.1-1.1-0.1-1.7c0-0.4,0.1-0.6,0.6-0.6c2.2,0,4.3-0.3,6.4-0.6c1.7-0.2,3.3-0.3,5-0.5
		c1.8-0.2,3.8-0.5,5.6-0.7c1-0.1,2-0.2,3-0.3c1.6-0.2,3.2-0.3,4.9-0.5c1-0.1,2.1-0.2,3.1-0.3c1.8-0.2,3.7-0.3,5.5-0.5
		c0.6-0.1,1.2-0.1,1.7-0.1c1.8-0.1,3.6-0.3,5.4-0.3c0.5,0,0.6,0.1,0.6,0.6C332.9,255.9,333,259.4,333,263L333,263z"/>
	<path id="path14-9" class="st5" d="M133.6,295.4c0,3-0.1,6.1,0,9.1c0.2,4-0.1,8.1,0.2,12c0.1,2.9-0.1,5.7,0.1,8.5
		c0.2,3.9-0.1,7.8,0.2,11.7c0.2,3.6,0,7.2,0.1,10.9c0,0.5-0.1,0.7-0.6,0.6c-4.3-0.3-8.5-0.2-12.7-0.1c-2.7,0.1-5.4,0-8,0.1
		c-1.1,0.1-2.1,0.1-3.2,0.1c-0.3,0-0.4-0.1-0.4-0.4c0-4.5-0.1-9.1,0.1-13.7c0.1-3.6,0.2-7.2,0.1-10.7c-0.2-8,0.1-16-0.1-24
		c-0.2-6.1,0-12.1-0.1-18.2c0-0.4-0.1-0.6-0.6-0.6c-3.2,0-6.4,0-9.5,0.1c-0.8,0-1.7,0.1-2.5,0.1c-0.4,0-0.6-0.2-0.4-0.5
		c0.2-0.4,0.1-0.9,0.1-1.4c0-3.9,0.1-7.7,0-11.5c-0.1-2.8-0.1-5.6-0.1-8.5c0-0.6-0.1-1.2-0.1-1.8c0-0.4,0.1-0.6,0.4-0.5
		c1.5,0.2,3,0.2,4.5,0.4c0.7,0.1,1.3,0.1,2.1,0.1c1.6,0.2,3.2,0.2,4.8,0.3c2.5,0.2,4.9,0.4,7.4,0.6c1.7,0.1,3.4,0.2,5.2,0.4
		c2.2,0.2,4.5,0.3,6.8,0.6c1.6,0.1,3.2,0.3,4.8,0.4c2,0.2,4.1,0.3,6.1,0.6c1.8,0.2,3.5,0.3,5.3,0.5c1.1,0.1,2.1,0.3,3.2,0.4
		c0.2,0,0.3,0.2,0.2,0.3c-0.3,1.5-0.1,2.9-0.1,4.3c-0.3,6.3-0.1,12.7-0.1,19c0,0.3,0,0.5-0.4,0.5c-2,0-4,0.1-5.9-0.1
		c-2-0.2-3.9,0-5.9-0.1c-0.4,0-0.6,0.1-0.6,0.6C133.6,288.7,133.6,292,133.6,295.4L133.6,295.4z"/>
	<path id="path16-5" class="st5" d="M287.7,285.2c-1.5,0-2.7,0-4.1,0c-1.7,0-3.3,0.1-5,0c-1.5-0.1-2.9-0.1-4.3-0.1
		c-0.4,0-0.6,0.1-0.6,0.5c0,8.4-0.1,16.8,0.1,25.2c0.1,4.1-0.1,8.3,0.1,12.4c0.2,3.2-0.1,6.6,0.1,9.8c0.2,4.1-0.1,8.2,0.2,12.3
		c0.1,2.7,0,5.4,0.1,8.1c0,0.6-0.2,0.7-0.7,0.7c-3.9-0.3-7.8-0.2-11.7-0.1c-2.5,0.1-5,0-7.5,0.1c-1.1,0.1-2.1,0.1-3.1,0.1
		c-0.4,0.1-0.6-0.2-0.5-0.6c0.2-0.7,0.1-1.5,0.1-2.2c0-14.1,0.1-28.1-0.1-42.2c-0.1-6.8,0-13.5-0.1-20.3c0-0.4-0.2-0.9-0.2-1.4
		c0.1-0.3-0.2-0.2-0.4-0.2c-0.7,0-1.5,0.1-2.2,0.1c-3.6,0.1-7.1,0-10.7,0.1c-0.6,0-0.7-0.3-0.6-0.7c0.1-0.3,0.1-0.7,0.1-1
		c0-3.8,0.1-7.7,0-11.5c-0.1-2.9-0.1-5.8-0.1-8.6c0-0.6-0.1-1.3-0.1-1.9c0-0.2-0.1-0.4,0.2-0.3c0.6,0.1,1.1-0.2,1.6-0.2
		c2.1,0.1,4.3-0.1,6.3-0.2c1.3-0.1,2.6,0.1,3.9-0.1c1.2-0.2,2.5,0,3.8-0.1c1.3-0.2,2.6,0,3.9-0.1c1.3-0.2,2.5,0,3.8-0.1
		c1.4-0.2,2.7,0,4.1-0.1c1.3-0.2,2.5,0,3.8-0.1c1.4-0.2,2.7,0,4.1-0.1c1.3-0.2,2.7,0,4.1-0.1c1.4-0.2,2.9,0,4.3-0.1
		c1.5-0.2,2.9,0,4.3-0.1c0.8-0.1,1.6-0.1,2.4-0.1c0.4,0,0.5,0.1,0.6,0.5c0.1,2.3-0.1,4.6-0.2,6.9c-0.1,1.5,0,2.9-0.1,4.3
		c-0.3,3.6-0.1,7.2-0.1,10.8C287.5,284.5,287.5,284.8,287.7,285.2L287.7,285.2z"/>
	<path id="path18-7" class="st5" d="M210,322.9c0-9.2,0.1-18.4-0.1-27.6c-0.1-4.6,0.1-9.2-0.1-13.9c-0.1-3.2,0.1-6.4-0.1-9.6
		c-0.2-3.2,0-6.4-0.1-9.6c0-0.6-0.2-1.2-0.1-1.8c0-0.3,0.1-0.4,0.3-0.3c0.1,0,0.3,0,0.4,0c7.4,0,14.8,0,22.2,0
		c0.6,0,1.2-0.1,1.8-0.1c0.4-0.1,0.6,0.1,0.6,0.6c0,3.5-0.1,7.1,0,10.6c0.2,5.4-0.1,10.9,0.1,16.4c0.2,6.2-0.1,12.5,0.1,18.7
		c0.2,7.8-0.1,15.6,0.2,23.4c0.1,4.3-0.1,8.5,0.1,12.8c0.1,2.9,0,5.8,0.1,8.8c0,0.5-0.1,0.6-0.6,0.6c-8.1,0-16.1,0-24.2,0
		c-0.5,0-0.6-0.1-0.6-0.6C210,341.7,210,332.3,210,322.9L210,322.9z"/>
</g>
<g id="layer101">
	<path class="st2" d="M385.3,104.6v7.5h10.1c5.5,0,10.7,0.1,11.6,0.2l1.5,0.3V151h22v-38.5l1.6-0.3c0.8-0.1,6-0.2,11.4-0.2h9.8v-7.5
		H385.3z M364.4,135.6l-11.2-4.6c-6.1-2.5-11.3-4.5-11.5-4.5c-0.2,0-0.3,5.5-0.3,12.2V151h23.2l-0.1-7.7L364.4,135.6z M364.2,87
		c-0.2,0.2-2.9,4.2-5.9,8.9l-5.5,8.5l-35.9,0.4l20.1,7.8c11,4.4,21.7,8.6,23.8,9.4c2.1,0.9,3.8,1.6,3.9,1.6c0,0,0.1-8.3,0.1-18.5
		C364.6,92.8,364.4,86.7,364.2,87z M251.3,107.6c-0.7,1.3-0.8,2.1-0.7,20.7c0.1,18.7,0.2,19.4,1,20.3c0.5,0.5,1.4,1.3,2.1,1.7
		c1.2,0.7,2.6,0.8,25.2,0.8h23.9v-7.5H288c-13.2,0-14.8-0.1-15.6-0.7c-0.7-0.6-0.7-1.4-0.7-5.8v-5.1h31.1v-7.9h-14.9
		c-8.2,0-15.2-0.1-15.6-0.2c-0.5-0.2-0.7-1.1-0.7-5.5c0-3.5,0.2-5.4,0.5-5.8c0.4-0.4,4.4-0.5,15.6-0.5h15.1v-7.5l-24.2,0.1
		C251.7,104.8,253.1,104.6,251.3,107.6z M176.4,107.1c-6.2,2.5-12.5,8.2-15.1,13.5c-2.4,5-2.1,11.3,1,16.1
		c3.7,5.9,11.6,11.6,18.6,13.5c2.4,0.6,6.7,1.2,7.7,1c0.5-0.1,8.2-0.2,17.1-0.2h16.3v-8.7H206c-15.2,0-15.9,0-17.6-0.9
		c-1.2-0.6-2.2-1.5-2.8-2.6c-1-1.7-1-1.9-1-11.1c0-8.8,0-9.4,1-11.2c0.7-1.4,1.4-2.1,2.8-2.8c1.8-0.9,2.1-0.9,17.7-0.9h15.9v-8.3
		h-18C183.9,104.6,182.1,104.7,176.4,107.1z M135.6,138.4c-2.8-5-5.8-10.5-6.8-12.2c-1.9-3.3-2.3-4.1-6.6-11.9
		c-3.1-5.6-5.2-7.9-8.9-9.6c-2.1-1-2.9-1.1-6.5-1.1s-4.4,0.1-6.4,1.1c-3.7,1.7-5.1,3.2-8.3,9.2c-1.7,3-3.4,6.1-3.8,6.9
		c-1.2,2.2-15.4,28.3-16,29.4l-0.5,1l12.7-0.2l2.9-5.4l29-0.2l1.3,2.9l1.3,2.9h23.7l-1-1.7C141.1,148.3,138.4,143.4,135.6,138.4z
		 M101.6,137.3h-9.5l1.4-2.6c0.8-1.5,3-5.5,4.9-9.1l3.5-6.5l4.6,8.8c2.6,4.8,4.6,8.9,4.6,9.1C111.1,137.2,106.9,137.3,101.6,137.3z
		 M3.2,105c-0.8,0.2-1.9,0.9-2.4,1.5C0,107.5,0,108,0,129.3V151h21.6v-19.1h31.1v-8.3H21.5v-5.1c0-4.9,0-5.2,0.9-5.8
		c0.8-0.6,3-0.7,15.6-0.7h14.6v-7.5H28.7C13.6,104.6,4.2,104.7,3.2,105z"/>
</g>
</svg>
