<?xml version="1.0" encoding="utf-8"?>
<!-- Generator: Adobe Illustrator 23.0.2, SVG Export Plug-In . SVG Version: 6.00 Build 0)  -->
<svg version="1.1" id="layer" xmlns="http://www.w3.org/2000/svg" xmlns:xlink="http://www.w3.org/1999/xlink" x="0px" y="0px"
	 viewBox="0 0 399.8 257.4" style="enable-background:new 0 0 399.8 257.4;" xml:space="preserve">
<style type="text/css">
	.st0{display:none;}
	.st1{display:inline;}
	.st2{fill:#FFFFFF;}
	.st3{display:inline;fill-rule:evenodd;clip-rule:evenodd;fill:#FFFFFF;}
	.st4{display:inline;enable-background:new    ;}
</style>
<g class="st0">
	<g class="st1">
		<g>
			<path class="st2" d="M300,125.6V47.8c0-1.2-1.5-1.7-2.3-0.8l-85,106.2c-0.7,0.8-0.1,2.1,1,2.1h61.4c1.7,0,3.2-0.8,4.2-2.1
				l19.4-24.2C299.5,128.1,300,126.9,300,125.6L300,125.6z M101.2,129.1l63.8,79.8c1,1.3,2.6,2,4.3,2h61.4c1.1,0,1.7-1.2,1-2
				L102.2,47.1c-0.8-0.9-2.3-0.4-2.3,0.8v77.8C100,126.9,100.4,128.1,101.2,129.1L101.2,129.1z"/>
		</g>
	</g>
</g>
<g class="st0">
	<path class="st3" d="M386.6,122.9h-40.1c-7.3,0-13.2,5.9-13.2,13.2v34.6c0,7.3,5.9,13.2,13.2,13.2h40.1c7.3,0,13.2-5.9,13.2-13.2
		v-34.6C399.8,128.8,393.9,122.9,386.6,122.9L386.6,122.9z M239.2,77.4h-4.9v-0.9c1.4,0,2.2-0.3,1.6-1.5c-0.9-1.8,3-1.7,3.6-1.3
		C240.5,74.5,239.8,76.5,239.2,77.4L239.2,77.4z M232.4,78.6h6c-0.7,1-2.5,4.4-3.7,4.4C234.2,82.4,232.6,80.2,232.4,78.6L232.4,78.6
		z M346.7,136.1h39.7v34.6h-39.7V136.1L346.7,136.1z M265.2,136.1h55.3v0c0-7.3-5.9-13.2-13.2-13.2h-42.4c-7.3,0-13.2,5.9-13.2,13.2
		v34.6c0,7.3,5.9,13.2,13.2,13.2h42.4c7.3,0,13.2-5.9,13.2-13.2v-22.8h-44.9v0c0,5.6,4.6,10.2,10.2,10.2h22.1v12.6h-42.7V136.1
		L265.2,136.1z M92.7,136.1h52.8v0c0-7.3-5.9-13.2-13.2-13.2H91.4c-7.3,0-13.2,5.9-13.2,13.2v10.7c0,7.3,5.9,13.2,13.2,13.2h40.9
		v10.7H78.2l0,0c0,7.3,5.9,13.2,13.2,13.2h42.2c7.3,0,13.2-5.9,13.2-13.2v-10.7c0-7.3-5.9-13.2-13.2-13.2H92.7V136.1L92.7,136.1z
		 M16.7,136.1h49.8v0c0-7.3-5.9-13.2-13.2-13.2H13.2c-7.3,0-13.2,5.9-13.2,13.2v34.6c0,7.3,5.9,13.2,13.2,13.2h40.1
		c7.3,0,13.2-5.9,13.2-13.2l0,0H16.7V136.1L16.7,136.1z M251.9,71.4c-0.3,0.1-0.6,0.3-1,0.3c-1.9,2.7-0.7,2.4-4.1,4.6
		c0,4.5,0.1,4.9,1.2,8.9c0,0.1,0,0.2,0,0.3c-0.1,0.1-0.1,0.1-0.2,0.2c-0.8,0.2-2,0.5-2.6,0.6c0,0.1,0.3,2.7,0,4.6
		c-0.6,3-7.6,9.4-9.3,9.8c-2.3,0.5-4.9-1.6-9-3.4c-1.1-0.5-4.9-3-6.8-3.6c-1.6-0.5-3.3,3.4-1.2,4.5c0.9,0.5,2.4,1.2,2.9,2.4
		c1.4,3.7-0.2,17.7-3.1,20.6c-1.4,0-2.5-1.3-3.6-0.9c-1.8,1-0.7,6.6,0,7.6c11.2,11.6,9.9,20.1,14.7,26.5c2.2,0,0.7,2.3,2.4,5
		c0.4,1.4-0.1,3.8-0.4,4.6c0,1.2,0,2.3,0,3.5c-0.1,0.4-0.2,0.7-0.4,1.1c0,1,0,2,0,3.1c-0.3,1.5-0.7,3.5-1,4.9
		c-0.7,2.9,1.9,5.2,0.4,8c0,1.7,0,1.4-1,2.8c0,2.7-0.6,8.3,0,10.2c0.4,1.4,5.4,7.2,6.7,7.8c3,1.3,7.5,1.1,6,5.8
		c-8.8,2.7-14.5-1.5-19.2-1.6l-0.2,0.8c-3,0-5.4-0.7-6.1-1c0-0.8,1-7.1,1.3-8.1c0.3-0.5,0.7-1.1,1-1.6c0.4-1.1-0.4-8.9-0.4-11
		c-1.9-1.4-2.3-5.6-2.3-7.9c-0.5-1.8-0.5-3.9-0.7-6.2c-0.1-1.1-0.7-2.7-0.3-4.1c0.3-0.9,1.3-1.3,1.6-2.1c0-0.9,0-1.7,0-2.6
		c0.5-2.8,0.3-4-1.3-5.7c-4.1,0.1-4.7,0.3-7-3.3c-0.7-1.1-6.5-10.2-7-10.5c-4.8-2.1-3.9-1.3-6-5c-0.1,0-1.4,0.4-2.5,2.1
		c-1.7,2.6-4.8,10.9-5.6,13.9c-0.5,1.6,0,3.4-0.7,4.8c-0.5,1-2.2,1.3-2.6,2c-1.7,3-0.4,2.8-3.6,4.9c-0.6,0.7-0.6,1.9-1,2.8
		c-0.2,0.3-0.5,0.7-0.7,1c-0.5,1.2,0.6,3.3,0.4,4c-0.6,1.9-1.3,3.8-2,5.6c-1.5,3.5-1.3,8.1-2.8,10.3c-0.7,1.1-2.5,0-3.9,0.9
		c-0.1,0.7-2.3,5.7-2.7,7.1c0,2.6,0,5.3,0,7.9c0.4,1.3,1.5,2.6,1.2,4.3c-0.4,1.8-6.6,1.8-10,1.3c-2.3-0.3-3-2-2.9-3.9
		c0-2.3,4.7-17.1,4.4-18.1c-3.5-3.9,0.9-8,2.3-11.7c0.6-1.8,0.2-4.3,0.9-6c1.2-2.3,2.5-4.5,3.7-6.8c2.3-2.1,1.2-2.2,2.5-4.1
		c1.1-1.7,2.3-2.8,1.6-5.3c-1.5-5.1,1.7-12.3,2-17.7c-0.6-0.6-2.5-0.4-2.8-2c-0.5-3.3,1.3-9.2,2.3-9.7c0.5-0.2,1,0,1.5-0.3
		c0-2.5-2.5-16.3-0.6-17c1.2-0.4,3.8-0.7,4.3-0.9c0-0.6-0.4-1.8-0.9-1.9c-0.8-0.1-2.5-0.4-3.9-0.7c-4.1-1-0.3-17.2-0.3-17.3
		c1.1-1.5,6.4,0.5,7-2c1.8-2.2-1.4-10.9,4.7-21.6c2-3.6,5.9-7.2,10.5-5.7c1.5,0.5,0.6,2.7,3.3,0.4c0.1-1.4-0.6-2.5-0.9-3.6
		c-4.4-13.2,10.6-20.4,21.1-12.9c1.2,0.5,1.9,0.7,2.8,1.4c0.6,3,3.6,8.3,0.6,11.8c-1.2,0.3-2.7,0.9-3.6,1.6c0,1.2,0.1,2.3,0.4,3.1
		c0.2,0.7,0.6,0.9-0.4,1.3c-0.1,0-0.1,0.5,0,0.6c2.5,0.5,5.1-0.5,6.7-1.1h2v-2.5h0.5h0.4v-1.9h0.9v3.3h2.4v1.1h36.3v1.9h1.6v-6.9
		h1.3v5.6h3.1v3.2h9.6v-1h1.6V67h4.5v2.7h-4.5v0.4h-1.6v-1H274v1c-1.4,0-2.8,0-4.2,0v-0.6h-1.8v1.9H251.9L251.9,71.4z"/>
</g>
<g class="st0">
	<g id="_x23_000000ff" class="st1">
		<path id="path3019" class="st2" d="M10.3,101.3c7-3.4,15.2-3.5,22.7-2c5.7,1.4,11.7,4.6,13.9,10.4c2.1,6.7,1.7,13.8,1.7,20.7
			c-6.8,0-13.6,0-20.5,0c-0.1-5.7,0.3-11.5-0.3-17.2c0.1-3.9-6.9-3.9-6.8,0c-0.7,9-0.2,18-0.3,27c0.2,5.7-0.4,11.6,0.5,17.3
			c0.6,2.3,3.4,2.5,5.2,1.7c1.4-1,1.4-2.8,1.6-4.4c0.2-4.3,0-8.6,0.1-12.8c6.8,0,13.7,0,20.5,0c-0.2,6.5,0.4,13.4-2.4,19.5
			c-4.5,7.5-14,10.3-22.3,10.1c-7.3-0.1-15.7-1.8-20.3-8.1c-3.3-5.1-3.1-11.5-3.4-17.3c0-10.4-0.3-20.7,0.4-31.1
			C0.9,109.1,5,103.8,10.3,101.3z"/>
		<path id="path3021" class="st2" d="M59.5,99.7c9.9-0.1,19.8-0.1,29.7,0c3.8,23.5,7.8,46.9,11.6,70.4c-6.4,0-12.8,0-19.1,0
			c-0.6-4.4-1-8.8-1.7-13.2c-2.3,0-4.6,0-6.8,0c0.4-3.9,0.9-7.9,1.3-11.8c1.4,0,2.8,0,4.2,0c-1.3-10.1-2.2-20.2-3.8-30.2
			c-2,18.4-4.4,36.8-6.6,55.1c-6.4,0-12.8,0-19.2,0C52.6,146.6,56.2,123.2,59.5,99.7z"/>
		<path id="path3023" class="st2" d="M104.4,99.6c6.8,0,13.6,0,20.4,0c0,18.8,0,37.5,0,56.3c4.2,0,8.3,0,12.5,0c0,4.7,0,9.4,0,14.1
			c-10.9,0-21.9,0-32.8,0C104.4,146.6,104.4,123.1,104.4,99.6L104.4,99.6z"/>
		<path id="path3025" class="st2" d="M142.1,99.6c6.8,0,13.6,0,20.4,0c0,18.8,0,37.5,0,56.3c4.1,0,8.2,0,12.3,0c0,4.7,0,9.4,0,14.1
			c-10.9,0-21.8,0-32.8,0C142.1,146.6,142.1,123.1,142.1,99.6z"/>
		<path id="path3027" class="st2" d="M200.2,99.6c9-0.1,18,0,27,0.4c4.7,0.3,9.7,0.7,13.9,3.1c3.8,2.3,6.1,6.6,6.2,11
			c0.6,12.2,0.3,24.5,0.3,36.8c-0.2,5.1,0.3,10.9-3.4,15c-4.1,3.7-9.9,3.9-15.2,4.1c-9.6,0.1-19.2,0-28.8,0
			C200.2,146.6,200.2,123.1,200.2,99.6 M220.6,111.8c0,15.5,0,30.9,0,46.4c1.9-0.4,4.9,0,5.8-2.3c1.2-5.1,0.6-10.4,0.7-15.6
			c-0.2-8.5,0.4-17-0.3-25.5C226.5,111.7,222.9,111.9,220.6,111.8z"/>
		<path id="path3029" class="st2" d="M252.7,99.6c6.8,0,13.5,0,20.3,0c0,17.1,0,34.2,0,51.3c0,2.3,0,4.5,0.4,6.8
			c0.3,2.6,4.8,2.4,5-0.1c0.5-2.2,0.4-4.5,0.4-6.7c0-17.1,0-34.2,0-51.3c6.8,0,13.5,0,20.3,0c0,16.4,0.1,32.9,0,49.3
			c-0.2,4.5,0.3,9.5-2.4,13.4c-3.2,5.4-9.4,8.1-15.4,8.7c-7.6,0.9-15.9,0-22.3-4.6c-4-2.9-6.1-7.8-6.1-12.6
			C252.4,135.8,252.8,117.7,252.7,99.6z"/>
		<path id="path3031" class="st2" d="M303.6,99.6c14.9,0,29.8,0,44.7,0c0,4.7,0,9.4,0,14.1c-4,0-8.1,0-12.1,0c0,18.8,0,37.5,0,56.3
			c-6.8,0-13.7,0-20.5,0c0-18.8,0-37.5,0-56.3c-4,0-8,0-12.1,0C303.5,109.1,303.6,104.3,303.6,99.6z"/>
		<path id="path3033" class="st2" d="M352,99.6c6.3,0.1,12.5-0.2,18.8,0.1c3.8,12.6,8.1,25.2,12,37.8c0.9,3.1,2.4,6.2,2.3,9.5
			c0,7.8,0,15.6,0,23.4c-6.3,0-12.6,0-18.8,0c0-7.5,0-15,0-22.5c0-1.7-0.1-3.4-0.6-5C361.1,128.5,356.5,114.1,352,99.6z"/>
		<path id="path3035" class="st2" d="M381.3,99.6c6.2,0,12.5,0,18.7,0c-4.4,13.3-8.7,26.7-13.1,40c-2.8-8.9-5.9-17.7-8.4-26.7
			C379,108.5,380.4,104.1,381.3,99.6z"/>
		<path id="path3037" class="st2" d="M172.5,116.5c3.6-1.6,8.9,0,9.5,4.3c0.4,5.2,0.4,10.5,0,15.7c-1.1,6-11.1,6.3-12.7,0.5
			c-0.8-4.7-0.3-9.4-0.4-14.1C168.9,120.3,170.1,117.5,172.5,116.5 M175,119.9c-0.4,5.8-0.3,11.5-0.1,17.3l1.4-0.4
			c0.6-5.3,0.4-10.8,0.1-16.1C176,120.4,175.3,120.1,175,119.9z"/>
		<path id="path3039" class="st2" d="M184.2,116.5c3.1,0,6.2,0,9.2,0c0,1.6,0,3.2,0,4.8c-1.2,0-2.5,0-3.7,0c0,1.5,0,3.1,0,4.6
			c1.1,0,2.2,0,3.4,0c0,1.5,0,2.9,0,4.4c-1.1,0-2.3,0-3.4,0c0,3.4,0,6.8,0,10.2c-1.8,0-3.6,0-5.5,0
			C184.2,132.6,184.2,124.5,184.2,116.5z"/>
	</g>
	<g class="st4">
		<path class="st2" d="M392.5,163.8c1.3,0,2.4,0.4,3.2,1.2c0.8,0.8,1.3,1.8,1.3,2.9c0,1.1-0.4,2.1-1.3,2.9c-0.9,0.8-1.9,1.2-3.1,1.2
			c-1.2,0-2.3-0.4-3.1-1.2c-0.9-0.8-1.3-1.8-1.3-2.9c0-0.8,0.2-1.6,0.7-2.2c0.5-0.7,1-1.2,1.7-1.5
			C391.2,163.9,391.9,163.8,392.5,163.8z M392.7,164.6c-1.1,0-2,0.3-2.6,1c-0.7,0.7-1,1.5-1,2.3c0,0.9,0.3,1.7,1,2.4
			c0.7,0.7,1.5,1,2.5,1c1,0,1.8-0.3,2.5-1c0.7-0.7,1-1.4,1-2.4c0-0.6-0.2-1.2-0.5-1.8c-0.3-0.5-0.8-0.9-1.3-1.2
			C393.7,164.7,393.2,164.6,392.7,164.6z M390.6,170.2v-4.4h2.2c0.5,0,0.9,0.1,1.2,0.4c0.2,0.2,0.4,0.5,0.4,0.9
			c0,0.3-0.1,0.6-0.3,0.8c-0.2,0.2-0.5,0.3-0.9,0.4c0.2,0.1,0.3,0.2,0.5,0.3c0.1,0.1,0.3,0.4,0.5,0.8l0.5,0.9h-1.2l-0.4-0.7
			c-0.2-0.4-0.4-0.7-0.6-0.9c-0.2-0.2-0.4-0.2-0.7-0.2h-0.2v1.8L390.6,170.2L390.6,170.2L390.6,170.2z M391.6,167.7h0.8
			c0.4,0,0.7,0,0.8-0.1c0.2-0.1,0.2-0.3,0.2-0.5c0-0.2-0.1-0.3-0.2-0.4c-0.2-0.1-0.4-0.1-0.7-0.1h-0.9L391.6,167.7L391.6,167.7
			L391.6,167.7z"/>
	</g>
</g>
<g id="g24" transform="translate(66.538619,-177.1609)">
	<path id="path4-9" class="st2" d="M-48.1,250.3c0.2,0.3,0.4,0.1,0.7,0.1c3.8,0,7.6,0.1,11.4,0c3.4-0.1,6.8,0.2,10.3,0.2
		c1.4,0,2.8-0.2,4.2-0.2c0.4,0,0.7,0.1,0.6,0.6c-0.2,2.7-0.1,5.5-0.2,8.2c-0.2,5.2-0.1,10.3-0.1,15.5c0,0.7-0.1,0.8-0.8,0.7
		c-0.4-0.1-0.7-0.1-1.1-0.1c-2.9,0-5.7-0.1-8.6,0c-2.4,0.1-4.8,0.1-7.2,0.1c-0.7,0-1.5,0.1-2.2,0.1c-0.4,0-0.4,0.2-0.4,0.5
		c0,1.7,0,3.5,0,5.3c0,3.6,0,7.2,0,10.8c0,0.6,0.1,0.8,0.7,0.7c1.9-0.1,3.8,0.1,5.7-0.1c1.6-0.1,3.3,0.1,4.9-0.2
		c1.4-0.2,2.9,0.1,4.3-0.2c0.2-0.1,0.2,0,0.2,0.2c0,0.1,0,0.2,0,0.3c0,3.3,0.1,6.6,0,9.9c-0.1,2.2-0.2,4.4-0.3,6.5
		c-0.1,1.5-0.1,3-0.1,4.5c0,0.6,0.2,1.2,0.2,1.8c0,0.6-0.2,0.7-0.7,0.6c-2.2-0.3-4.5-0.1-6.7-0.1c-1.3-0.1-2.7,0-4.1,0
		c-1.2-0.1-2.4,0.3-3.6,0.1c0.1,0.4,0.1,0.9,0.1,1.3c0,2.4-0.1,4.8,0,7.1c0.2,4.5-0.1,9.1,0.2,13.7c0.2,3.6-0.1,7.2,0.1,10.8
		c0.1,2.1-0.1,4.3,0.2,6.3c0.1,1-0.2,1-1,1.2c-2.5,0.5-5,1-7.5,1.6c-2.2,0.4-4.5,1-6.7,1.5c-2.5,0.5-4.9,1-7.4,1.5
		c-0.6,0.1-1.1,0.2-1.6,0.4c-0.7,0.2-0.9,0.1-0.9-0.7c0-5,0.1-10.1,0-15.2c-0.2-9.2,0.1-18.4-0.2-27.7c-0.1-4,0.1-8-0.1-11.9
		c-0.2-3.9,0.1-7.7-0.1-11.6c-0.2-3.6,0.1-7.3-0.1-10.9c-0.2-3.1,0.1-6.3-0.1-9.4c-0.2-2.9,0.1-5.7-0.1-8.5
		c-0.2-2.6-0.1-5.2-0.1-7.7c0-0.2,0.1-0.4-0.1-0.4c0-2.2,0-4.4,0-6.6c0-0.5,0.2-0.6,0.6-0.6C-60.1,250.3-54.1,250.3-48.1,250.3
		L-48.1,250.3z"/>
	<path id="path6-2" class="st2" d="M169,305.5c0.4,1.6,0,3.3,0.3,5c0,0.1,0,0.1,0,0.2c0.1,2,0.1,3.9,0.2,5.8
		c0.1,2.4,0.2,4.7,0.3,7.1c0.1,1.8,0.2,3.7,0.3,5.6c0.1,1.8,0.2,3.5,0.3,5.3c0.1,1.5,0.2,3,0.3,4.5c0.1,2.3,0.3,4.5,0.4,6.8
		c0.1,1.3,0.1,1.3-1.2,1.3c-2,0.1-3.9-0.1-5.8-0.2c-1.6-0.1-3.2,0-4.8-0.1c-3.5-0.3-6.9-0.1-10.5-0.1c-0.4,0-0.6-0.1-0.6-0.6
		c0-2.2-0.1-4.4,0-6.6c0.3-11.1,0.2-22.3,0.1-33.4c-0.2-15.1,0-30.3-0.1-45.4c0-0.7,0.1-0.8,0.8-0.9c1.4-0.1,2.8-0.4,4.2-0.7
		c1.6-0.3,3.3-0.6,4.9-1c2.2-0.4,4.4-0.8,6.6-1.2c1.5-0.3,3.1-0.4,4.6-0.7c0.2-0.1,0.3,0.1,0.4,0.3c0.8,2.4,1.7,4.8,2.6,7.1
		c1.6,4.4,3.1,8.9,4.6,13.3c1,3,2,5.9,3.1,8.9c1.7,5,3.5,10,5.3,15.1c0.2,0.5,0.3,1,0.6,1.5c-0.3-1.3,0-2.6-0.2-3.8
		c0-0.1-0.1-0.2-0.1-0.3c0.1-1.3-0.1-2.7-0.2-4c-0.1-2.3-0.3-4.6-0.4-6.9c-0.1-1.3-0.1-2.7-0.3-4c-0.2-2.2-0.3-4.4-0.5-6.6
		c-0.1-1.3-0.2-2.6-0.3-3.8c-0.2-1.7-0.3-3.5-0.5-5.3c-0.1-1.2-0.2-2.4-0.3-3.6c-0.2-1.8-0.3-3.5-0.5-5.3c-0.1-0.8-0.2-1.7-0.2-2.6
		c0.1-0.3-0.3-0.7-0.1-1c0.3-0.2,0.8-0.1,1.2-0.1c6.3,0.3,12.7,0.1,19,0.1c0.5,0,1-0.1,1.5-0.1c0.3-0.1,0.4,0.1,0.4,0.4
		c0,0.2,0,0.3,0,0.4c0,28.8,0,57.6,0,86.4c0,1.7,0.1,3.5,0.1,5.2c0,0.4-0.1,0.5-0.5,0.5c-1.4,0.1-2.8,0.4-4.3,0.5
		c-1.1,0.1-2.1,0.2-3.2,0.3c-1.5,0.1-3,0.4-4.4,0.5c-0.9,0.1-1.8,0.2-2.7,0.3c-1.1,0.1-2.1,0.2-3.1,0.3c-0.4,0.1-0.6-0.1-0.7-0.5
		c-1.2-3.5-2.4-6.9-3.6-10.4c-1-2.7-2-5.3-3.1-8c-1.3-3-2.5-6.1-3.6-9.2c-1.3-3.9-2.8-7.7-4.2-11.5
		C170.3,308.9,169.7,307.2,169,305.5C169.1,305.5,169.1,305.5,169,305.5L169,305.5z"/>
	<path id="path8-3" class="st2" d="M50.3,257.1c-2.3,0-4.7,0-7,0.2c-1.1,0.1-2.1,0.1-3.1,0.2c-0.5,0-0.8,0.1-0.8,0.7
		c0,1.8,0.1,3.6-0.1,5.5c-0.2,3.5,0.1,7.1-0.2,10.6c-0.2,2.4,0.1,4.8-0.1,7.2c-0.2,2.7-0.1,5.4-0.1,8.2c-0.2,6.9,0.1,13.8-0.2,20.8
		c-0.2,5.1,0.1,10.3-0.1,15.3c-0.2,4.3,0.1,8.7-0.1,13c-0.2,3-0.1,6-0.1,9c0,0.4,0.1,0.5,0.5,0.5c1.7,0,3.4-0.1,5.2-0.1
		c2.9-0.1,5.9,0,8.9,0c3.2,0,6.4-0.1,9.7-0.1c0.5,0,0.7-0.1,0.6-0.6c-0.1-0.6-0.1-1.3-0.1-2c-0.1-2.4,0.1-4.9-0.1-7.3
		c-0.2-2.4-0.1-4.8-0.1-7.2c-0.1-3.4-0.2-6.8-0.2-10.3c0-1.3,0-1.3,1.3-1.3c0.3,0,0.4,0.2,0.5,0.4l2.7,10.1
		c0.9,3.4,1.8,6.7,2.8,10.1c1.1,3.7,2,7.5,2.9,11.2c0.1,0.4,0.2,0.6,0.6,0.6c0.7-0.1,1.4-0.1,2.1-0.1c1.7-0.1,3.4-0.2,5-0.3
		c2-0.1,3.9-0.2,5.8-0.4c1.7-0.1,3.5-0.3,5.3-0.4c1.9-0.1,3.8-0.3,5.7-0.3c0.7,0,0.8-0.1,0.6-0.8c-1.1-2.9-2.2-5.9-3.2-8.8
		c-1.8-4.9-3.8-9.7-5.4-14.6c-1.5-4.4-3-8.8-4.3-13.2c-0.1-0.3-0.1-0.6,0.2-0.7c1.6-1.2,3-2.6,4.3-4.1c1.3-1.6,2.5-3.3,3.4-5.2
		c1.8-3.5,2.4-7.4,2.5-11.3c0.1-3.7,0.2-7.4-0.8-11c-0.8-3.3-2.1-6.5-4-9.4c-1.7-2.7-3.9-5.2-6.2-7.5c-2.4-2.3-5-4-8.2-4.9
		c-3.2-1-6.5-1.2-9.7-1.3c-3.2-0.2-6.3-0.1-9.5-0.1C55,257.2,52.7,257.1,50.3,257.1L50.3,257.1z M63,277.9c1.7,0,3.3,0.5,4.6,1.7
		c1.2,1.1,1.8,2.6,2.3,4.1c0.7,2.5,1,5,1,7.4c0.1,2.5-0.1,4.8-1,7c-1,2.7-2.9,4.5-5.8,5c-0.1,0-0.1,0.1-0.2,0.1
		c-1,0.3-1.2,0.1-1.2-0.9c0.1-2.6-0.1-5.3-0.2-7.9c-0.1-1.8,0.1-3.6-0.1-5.5c-0.3-3.4-0.1-6.9-0.1-10.3
		C62.4,278,62.4,277.9,63,277.9z"/>
	<path id="path10-7" class="st2" d="M7.4,256.8c-2.9,0-5,0.2-7.1,0.6c-1.9,0.3-3.8,0.8-5.5,1.7c-2.9,1.3-5.3,3.2-7.5,5.5
		c-1.5,1.7-2.7,3.6-3.8,5.6c-1.2,2.2-2.1,4.6-2.8,7c-1,3.2-1.6,6.5-2,9.9c-0.2,1.6-0.4,3.3-0.6,4.9c-0.2,2.3-0.3,4.6-0.4,7
		c-0.1,1.7,0,3.4,0,5c0,3.1-0.1,6.3,0.2,9.5c0.2,1.9,0.4,3.9,0.6,5.8c0.2,1.6,0.4,3.2,0.7,4.9c0.5,2.7,1.2,5.3,2.1,7.9
		c0.9,2.5,2,4.8,3.4,7c1.2,1.9,2.6,3.6,4.4,5.2c1.2,1.1,2.5,2,3.9,2.8c4,2.2,8.4,2.9,12.9,3.1c1,0,1.8-0.1,2.8-0.1
		c1.7-0.1,3.4-0.3,5-0.6c2.2-0.4,4.5-1.1,6.6-2.1c2.8-1.4,5.2-3.3,7.1-5.8c1.7-2.2,3-4.5,4-7.1c1-2.3,1.6-4.6,2.2-7.1
		c0.4-2,0.8-3.9,1.1-5.9c0.3-1.8,0.5-3.8,0.7-5.6c0.2-2.2,0.3-4.4,0.4-6.7c0.1-1.8,0.1-3.6,0-5.4c-0.1-2.4,0.1-4.8-0.1-7.1
		c-0.1-1.6-0.2-3.1-0.3-4.7c-0.1-1.5-0.3-3-0.4-4.5c-0.2-2.4-0.6-4.6-1-6.9c-0.6-3.2-1.6-6.3-2.9-9.3c-1.7-3.7-4-7-7.3-9.5
		c-1.7-1.3-3.6-2.4-5.7-3.1C14.5,257.3,10.7,256.9,7.4,256.8z M6.8,275.3c0.7,0,1.4,0.5,1.9,1.3c0.6,1.1,0.8,2.3,1,3.5
		c0.2,1.1,0.2,2.2,0.3,3.2c0.2,1,0.2,2.1,0.3,3.2c0.2,2.1,0,4.1,0.1,6.2c0.3,6.7,0.1,13.4,0.1,20.1c0,2.2,0,4.4-0.1,6.6
		c-0.1,1.6-0.1,3.1-0.2,4.7c-0.2,2.2-0.3,4.5-1.1,6.6c-0.5,1.6-1.7,2.2-3,1.6c-0.9-0.4-1.3-1.2-1.6-2.1c-0.5-1.7-0.7-3.5-0.8-5.2
		c-0.2-2.2-0.3-4.4-0.4-6.6c-0.1-1.6,0-3.3-0.1-4.9C2.9,306.9,3,300.3,3,293.7c0-2.1,0-4.1,0.1-6.2c0.1-1.6,0.1-3.2,0.3-4.8
		c0.2-1.7,0.3-3.4,0.8-5.1c0.3-1,0.8-1.8,1.8-2.2C6.3,275.4,6.6,275.3,6.8,275.3L6.8,275.3z"/>
	<path id="path12-0" class="st2" d="M333,263c0,3.4-0.1,6.7,0,10.1c0,1.7,0.2,3.5,0.3,5.2c0,0.4-0.1,0.5-0.5,0.5
		c-2.6,0-5.2,0.1-7.8,0.1c-3.3,0.1-6.6,0.1-9.9,0.1c-1,0-1,0-1,1c0,1-0.2,1.9-0.2,2.9c0.3,3.9,0.1,7.8,0.1,11.7
		c0,0.3,0.1,0.4,0.4,0.4c3.6,0,7.2,0.1,10.8-0.1c1.3-0.1,2.7,0,4.1-0.1c0.5-0.1,0.6,0.1,0.6,0.6c0,5.1-0.1,10.2,0,15.3
		c0,1.3,0.1,2.7,0.1,4.1c0,0.3-0.1,0.4-0.4,0.4c-3.3,0-6.6,0.1-9.9-0.1c-1.6-0.1-3.1,0-4.6-0.1c-0.4,0-0.5,0.1-0.5,0.5
		c0,2.4-0.1,4.8,0.1,7.3c0.1,2.2,0.2,4.5,0.2,6.7c0,0.5,0.2,0.7,0.8,0.8c2.5,0.1,5,0.3,7.6,0.4c1.4,0.1,2.8,0.2,4.3,0.3
		c1.7,0.1,3.4,0.1,5.1,0.2c0.3,0,0.3,0.2,0.3,0.4c0,1,0.1,2-0.1,3.1c-0.1,0.4,0,0.8,0,1.2c-0.2,7.3-0.1,14.6-0.1,22
		c0,0.4-0.1,0.6-0.6,0.6c-1.7-0.2-3.4-0.2-5-0.4c-0.7-0.1-1.3-0.1-2-0.1c-1.5-0.2-3.1-0.2-4.6-0.3c-2-0.2-4-0.2-6.1-0.5
		c-0.6-0.1-1.3-0.1-1.9-0.1c-1.5-0.2-3.1-0.2-4.6-0.3c-2-0.2-4.1-0.4-6.1-0.5c-0.8-0.1-1.7-0.1-2.5-0.2c-2.6-0.1-5.2-0.4-7.8-0.4
		c-0.4,0-0.6-0.2-0.6-0.6c0-2.2,0.1-4.4,0.2-6.6c0.1-1.9,0.2-3.8,0.3-5.7c0.1-2,0.2-3.9,0.3-5.8c0.1-1.2,0-2.5,0.1-3.6
		c0.3-4.5,0.2-9,0.1-13.6c-0.1-4.4,0.1-8.7-0.1-13.1c-0.2-3.7,0.1-7.4-0.1-11.1c-0.2-4.6,0.1-9.2-0.2-13.7
		c-0.2-3.8,0.1-7.5-0.1-11.2c-0.2-4.3-0.1-8.5-0.1-12.7c0-0.6-0.1-1.1-0.1-1.7c0-0.4,0.1-0.6,0.6-0.6c2.2,0,4.3-0.3,6.4-0.6
		c1.7-0.2,3.3-0.3,5-0.5c1.8-0.2,3.8-0.5,5.6-0.7c1-0.1,2-0.2,3-0.3c1.6-0.2,3.2-0.3,4.9-0.5c1-0.1,2.1-0.2,3.1-0.3
		c1.8-0.2,3.7-0.3,5.5-0.5c0.6-0.1,1.2-0.1,1.7-0.1c1.8-0.1,3.6-0.3,5.4-0.3c0.5,0,0.6,0.1,0.6,0.6C332.9,255.9,333,259.4,333,263
		L333,263z"/>
	<path id="path14-9" class="st2" d="M133.6,295.4c0,3-0.1,6.1,0,9.1c0.2,4-0.1,8.1,0.2,12c0.1,2.9-0.1,5.7,0.1,8.5
		c0.2,3.9-0.1,7.8,0.2,11.7c0.2,3.6,0,7.2,0.1,10.9c0,0.5-0.1,0.7-0.6,0.6c-4.3-0.3-8.5-0.2-12.7-0.1c-2.7,0.1-5.4,0-8,0.1
		c-1.1,0.1-2.1,0.1-3.2,0.1c-0.3,0-0.4-0.1-0.4-0.4c0-4.5-0.1-9.1,0.1-13.7c0.1-3.6,0.2-7.2,0.1-10.7c-0.2-8,0.1-16-0.1-24
		c-0.2-6.1,0-12.1-0.1-18.2c0-0.4-0.1-0.6-0.6-0.6c-3.2,0-6.4,0-9.5,0.1c-0.8,0-1.7,0.1-2.5,0.1c-0.4,0-0.6-0.2-0.4-0.5
		c0.2-0.4,0.1-0.9,0.1-1.4c0-3.9,0.1-7.7,0-11.5c-0.1-2.8-0.1-5.6-0.1-8.5c0-0.6-0.1-1.2-0.1-1.8c0-0.4,0.1-0.6,0.4-0.5
		c1.5,0.2,3,0.2,4.5,0.4c0.7,0.1,1.3,0.1,2.1,0.1c1.6,0.2,3.2,0.2,4.8,0.3c2.5,0.2,4.9,0.4,7.4,0.6c1.7,0.1,3.4,0.2,5.2,0.4
		c2.2,0.2,4.5,0.3,6.8,0.6c1.6,0.1,3.2,0.3,4.8,0.4c2,0.2,4.1,0.3,6.1,0.6c1.8,0.2,3.5,0.3,5.3,0.5c1.1,0.1,2.1,0.3,3.2,0.4
		c0.2,0,0.3,0.2,0.2,0.3c-0.3,1.5-0.1,2.9-0.1,4.3c-0.3,6.3-0.1,12.7-0.1,19c0,0.3,0,0.5-0.4,0.5c-2,0-4,0.1-5.9-0.1
		c-2-0.2-3.9,0-5.9-0.1c-0.4,0-0.6,0.1-0.6,0.6C133.6,288.7,133.6,292,133.6,295.4L133.6,295.4z"/>
	<path id="path16-5" class="st2" d="M287.7,285.2c-1.5,0-2.7,0-4.1,0c-1.7,0-3.3,0.1-5,0c-1.5-0.1-2.9-0.1-4.3-0.1
		c-0.4,0-0.6,0.1-0.6,0.5c0,8.4-0.1,16.8,0.1,25.2c0.1,4.1-0.1,8.3,0.1,12.4c0.2,3.2-0.1,6.6,0.1,9.8c0.2,4.1-0.1,8.2,0.2,12.3
		c0.1,2.7,0,5.4,0.1,8.1c0,0.6-0.2,0.7-0.7,0.7c-3.9-0.3-7.8-0.2-11.7-0.1c-2.5,0.1-5,0-7.5,0.1c-1.1,0.1-2.1,0.1-3.1,0.1
		c-0.4,0.1-0.6-0.2-0.5-0.6c0.2-0.7,0.1-1.5,0.1-2.2c0-14.1,0.1-28.1-0.1-42.2c-0.1-6.8,0-13.5-0.1-20.3c0-0.4-0.2-0.9-0.2-1.4
		c0.1-0.3-0.2-0.2-0.4-0.2c-0.7,0-1.5,0.1-2.2,0.1c-3.6,0.1-7.1,0-10.7,0.1c-0.6,0-0.7-0.3-0.6-0.7c0.1-0.3,0.1-0.7,0.1-1
		c0-3.8,0.1-7.7,0-11.5c-0.1-2.9-0.1-5.8-0.1-8.6c0-0.6-0.1-1.3-0.1-1.9c0-0.2-0.1-0.4,0.2-0.3c0.6,0.1,1.1-0.2,1.6-0.2
		c2.1,0.1,4.3-0.1,6.3-0.2c1.3-0.1,2.6,0.1,3.9-0.1c1.2-0.2,2.5,0,3.8-0.1c1.3-0.2,2.6,0,3.9-0.1c1.3-0.2,2.5,0,3.8-0.1
		c1.4-0.2,2.7,0,4.1-0.1c1.3-0.2,2.5,0,3.8-0.1c1.4-0.2,2.7,0,4.1-0.1c1.3-0.2,2.7,0,4.1-0.1c1.4-0.2,2.9,0,4.3-0.1
		c1.5-0.2,2.9,0,4.3-0.1c0.8-0.1,1.6-0.1,2.4-0.1c0.4,0,0.5,0.1,0.6,0.5c0.1,2.3-0.1,4.6-0.2,6.9c-0.1,1.5,0,2.9-0.1,4.3
		c-0.3,3.6-0.1,7.2-0.1,10.8C287.5,284.5,287.5,284.8,287.7,285.2L287.7,285.2z"/>
	<path id="path18-7" class="st2" d="M210,322.9c0-9.2,0.1-18.4-0.1-27.6c-0.1-4.6,0.1-9.2-0.1-13.9c-0.1-3.2,0.1-6.4-0.1-9.6
		c-0.2-3.2,0-6.4-0.1-9.6c0-0.6-0.2-1.2-0.1-1.8c0-0.3,0.1-0.4,0.3-0.3c0.1,0,0.3,0,0.4,0c7.4,0,14.8,0,22.2,0
		c0.6,0,1.2-0.1,1.8-0.1c0.4-0.1,0.6,0.1,0.6,0.6c0,3.5-0.1,7.1,0,10.6c0.2,5.4-0.1,10.9,0.1,16.4c0.2,6.2-0.1,12.5,0.1,18.7
		c0.2,7.8-0.1,15.6,0.2,23.4c0.1,4.3-0.1,8.5,0.1,12.8c0.1,2.9,0,5.8,0.1,8.8c0,0.5-0.1,0.6-0.6,0.6c-8.1,0-16.1,0-24.2,0
		c-0.5,0-0.6-0.1-0.6-0.6C210,341.7,210,332.3,210,322.9L210,322.9z"/>
</g>
</svg>
