<?xml version="1.0" encoding="utf-8"?>
<!-- Generator: Adobe Illustrator 23.0.2, SVG Export Plug-In . SVG Version: 6.00 Build 0)  -->
<svg version="1.1" id="layer" xmlns="http://www.w3.org/2000/svg" xmlns:xlink="http://www.w3.org/1999/xlink" x="0px" y="0px"
	 viewBox="0 0 524.9 257.4" style="enable-background:new 0 0 524.9 257.4;" xml:space="preserve">
<style type="text/css">
	.st0{display:none;}
	.st1{display:inline;}
	.st2{fill:#FFFFFF;}
	.st3{display:inline;fill-rule:evenodd;clip-rule:evenodd;fill:#FFFFFF;}
	.st4{display:inline;enable-background:new    ;}
	.st5{display:inline;fill:#FFFFFF;}
	.st6{fill-rule:evenodd;clip-rule:evenodd;fill:#FFFFFF;}
</style>
<g class="st0">
	<g class="st1">
		<g>
			<path class="st2" d="M328.6,125.6V47.8c0-1.2-1.5-1.7-2.3-0.8l-85,106.2c-0.7,0.8-0.1,2.1,1,2.1h61.4c1.7,0,3.2-0.8,4.2-2.1
				l19.4-24.2C328.1,128.1,328.6,126.9,328.6,125.6L328.6,125.6z M129.8,129.1l63.8,79.8c1,1.3,2.6,2,4.3,2h61.4c1.1,0,1.7-1.2,1-2
				L130.8,47.1c-0.8-0.9-2.3-0.4-2.3,0.8v77.8C128.6,126.9,129,128.1,129.8,129.1L129.8,129.1z"/>
		</g>
	</g>
</g>
<g class="st0">
	<path class="st3" d="M415.2,122.9h-40.1c-7.3,0-13.2,5.9-13.2,13.2v34.6c0,7.3,5.9,13.2,13.2,13.2h40.1c7.3,0,13.2-5.9,13.2-13.2
		v-34.6C428.4,128.8,422.5,122.9,415.2,122.9L415.2,122.9z M267.8,77.4h-4.9v-0.9c1.4,0,2.2-0.3,1.6-1.5c-0.9-1.8,3-1.7,3.6-1.3
		C269.1,74.5,268.4,76.5,267.8,77.4L267.8,77.4z M261,78.6h6c-0.7,1-2.5,4.4-3.7,4.4C262.8,82.4,261.2,80.2,261,78.6L261,78.6z
		 M375.3,136.1H415v34.6h-39.7V136.1L375.3,136.1z M293.8,136.1h55.3l0,0c0-7.3-5.9-13.2-13.2-13.2h-42.4c-7.3,0-13.2,5.9-13.2,13.2
		v34.6c0,7.3,5.9,13.2,13.2,13.2h42.4c7.3,0,13.2-5.9,13.2-13.2v-22.8h-44.9l0,0c0,5.6,4.6,10.2,10.2,10.2h22.1v12.6h-42.7V136.1
		L293.8,136.1z M121.3,136.1h52.8l0,0c0-7.3-5.9-13.2-13.2-13.2H120c-7.3,0-13.2,5.9-13.2,13.2v10.7c0,7.3,5.9,13.2,13.2,13.2h40.9
		v10.7h-54.1l0,0c0,7.3,5.9,13.2,13.2,13.2h42.2c7.3,0,13.2-5.9,13.2-13.2V160c0-7.3-5.9-13.2-13.2-13.2h-40.9V136.1L121.3,136.1z
		 M45.3,136.1h49.8l0,0c0-7.3-5.9-13.2-13.2-13.2H41.8c-7.3,0-13.2,5.9-13.2,13.2v34.6c0,7.3,5.9,13.2,13.2,13.2h40.1
		c7.3,0,13.2-5.9,13.2-13.2l0,0H45.3V136.1L45.3,136.1z M280.5,71.4c-0.3,0.1-0.6,0.3-1,0.3c-1.9,2.7-0.7,2.4-4.1,4.6
		c0,4.5,0.1,4.9,1.2,8.9c0,0.1,0,0.2,0,0.3c-0.1,0.1-0.1,0.1-0.2,0.2c-0.8,0.2-2,0.5-2.6,0.6c0,0.1,0.3,2.7,0,4.6
		c-0.6,3-7.6,9.4-9.3,9.8c-2.3,0.5-4.9-1.6-9-3.4c-1.1-0.5-4.9-3-6.8-3.6c-1.6-0.5-3.3,3.4-1.2,4.5c0.9,0.5,2.4,1.2,2.9,2.4
		c1.4,3.7-0.2,17.7-3.1,20.6c-1.4,0-2.5-1.3-3.6-0.9c-1.8,1-0.7,6.6,0,7.6c11.2,11.6,9.9,20.1,14.7,26.5c2.2,0,0.7,2.3,2.4,5
		c0.4,1.4-0.1,3.8-0.4,4.6c0,1.2,0,2.3,0,3.5c-0.1,0.4-0.2,0.7-0.4,1.1c0,1,0,2,0,3.1c-0.3,1.5-0.7,3.5-1,4.9
		c-0.7,2.9,1.9,5.2,0.4,8c0,1.7,0,1.4-1,2.8c0,2.7-0.6,8.3,0,10.2c0.4,1.4,5.4,7.2,6.7,7.8c3,1.3,7.5,1.1,6,5.8
		c-8.8,2.7-14.5-1.5-19.2-1.6l-0.2,0.8c-3,0-5.4-0.7-6.1-1c0-0.8,1-7.1,1.3-8.1c0.3-0.5,0.7-1.1,1-1.6c0.4-1.1-0.4-8.9-0.4-11
		c-1.9-1.4-2.3-5.6-2.3-7.9c-0.5-1.8-0.5-3.9-0.7-6.2c-0.1-1.1-0.7-2.7-0.3-4.1c0.3-0.9,1.3-1.3,1.6-2.1c0-0.9,0-1.7,0-2.6
		c0.5-2.8,0.3-4-1.3-5.7c-4.1,0.1-4.7,0.3-7-3.3c-0.7-1.1-6.5-10.2-7-10.5c-4.8-2.1-3.9-1.3-6-5c-0.1,0-1.4,0.4-2.5,2.1
		c-1.7,2.6-4.8,10.9-5.6,13.9c-0.5,1.6,0,3.4-0.7,4.8c-0.5,1-2.2,1.3-2.6,2c-1.7,3-0.4,2.8-3.6,4.9c-0.6,0.7-0.6,1.9-1,2.8
		c-0.2,0.3-0.5,0.7-0.7,1c-0.5,1.2,0.6,3.3,0.4,4c-0.6,1.9-1.3,3.8-2,5.6c-1.5,3.5-1.3,8.1-2.8,10.3c-0.7,1.1-2.5,0-3.9,0.9
		c-0.1,0.7-2.3,5.7-2.7,7.1c0,2.6,0,5.3,0,7.9c0.4,1.3,1.5,2.6,1.2,4.3c-0.4,1.8-6.6,1.8-10,1.3c-2.3-0.3-3-2-2.9-3.9
		c0-2.3,4.7-17.1,4.4-18.1c-3.5-3.9,0.9-8,2.3-11.7c0.6-1.8,0.2-4.3,0.9-6c1.2-2.3,2.5-4.5,3.7-6.8c2.3-2.1,1.2-2.2,2.5-4.1
		c1.1-1.7,2.3-2.8,1.6-5.3c-1.5-5.1,1.7-12.3,2-17.7c-0.6-0.6-2.5-0.4-2.8-2c-0.5-3.3,1.3-9.2,2.3-9.7c0.5-0.2,1,0,1.5-0.3
		c0-2.5-2.5-16.3-0.6-17c1.2-0.4,3.8-0.7,4.3-0.9c0-0.6-0.4-1.8-0.9-1.9c-0.8-0.1-2.5-0.4-3.9-0.7c-4.1-1-0.3-17.2-0.3-17.3
		c1.1-1.5,6.4,0.5,7-2c1.8-2.2-1.4-10.9,4.7-21.6c2-3.6,5.9-7.2,10.5-5.7c1.5,0.5,0.6,2.7,3.3,0.4c0.1-1.4-0.6-2.5-0.9-3.6
		c-4.4-13.2,10.6-20.4,21.1-12.9c1.2,0.5,1.9,0.7,2.8,1.4c0.6,3,3.6,8.3,0.6,11.8c-1.2,0.3-2.7,0.9-3.6,1.6c0,1.2,0.1,2.3,0.4,3.1
		c0.2,0.7,0.6,0.9-0.4,1.3c-0.1,0-0.1,0.5,0,0.6c2.5,0.5,5.1-0.5,6.7-1.1h2v-2.5h0.5h0.4v-1.9h0.9V63h2.4v1.1h36.3V66h1.6v-6.9h1.3
		v5.6h3.1v3.2h9.6v-1h1.6V67h4.5v2.7H314v0.4h-1.6v-1h-9.8v1c-1.4,0-2.8,0-4.2,0v-0.6h-1.8v1.9H280.5L280.5,71.4z"/>
</g>
<g class="st0">
	<g id="_x23_000000ff" class="st1">
		<path id="path3019" class="st2" d="M40.2,96.8c7.9-3.9,17.2-4,25.7-2.2c6.4,1.5,13.3,5.2,15.7,11.8c2.4,7.6,1.9,15.6,1.9,23.4
			c-7.7,0-15.5,0-23.2,0c-0.2-6.5,0.4-13-0.3-19.5c0.1-4.5-7.8-4.4-7.7,0c-0.8,10.2-0.2,20.4-0.4,30.6c0.2,6.5-0.5,13.1,0.6,19.6
			c0.6,2.6,3.9,2.8,5.9,1.9c1.6-1.1,1.6-3.2,1.8-4.9c0.3-4.8,0.1-9.7,0.1-14.5c7.7,0,15.5,0,23.2,0c-0.2,7.4,0.4,15.2-2.7,22.1
			c-5.1,8.5-15.8,11.7-25.3,11.4c-8.3-0.1-17.8-2-23-9.2c-3.7-5.8-3.6-13-3.9-19.6c0.1-11.7-0.4-23.5,0.4-35.2
			C29.6,105.6,34.2,99.7,40.2,96.8z"/>
		<path id="path3021" class="st2" d="M96.1,95c11.2-0.2,22.5-0.1,33.7,0c4.3,26.6,8.8,53.2,13.2,79.8c-7.2,0-14.5,0-21.7,0
			c-0.6-5-1.1-10-1.9-14.9c-2.6,0-5.2,0-7.7,0c0.5-4.5,1-8.9,1.4-13.4c1.6,0,3.2,0,4.8,0c-1.4-11.4-2.5-22.8-4.3-34.2
			c-2.3,20.9-5,41.7-7.5,62.5c-7.2,0-14.5,0-21.8,0C88.2,148.1,92.3,121.6,96.1,95z"/>
		<path id="path3023" class="st2" d="M146.9,94.9c7.7,0,15.4,0,23.1,0c0,21.3,0,42.5,0,63.8c4.7,0,9.4,0,14.1,0c0,5.3,0,10.7,0,16
			c-12.4,0-24.8,0-37.2,0C146.9,148.1,146.9,121.5,146.9,94.9L146.9,94.9z"/>
		<path id="path3025" class="st2" d="M189.6,94.9c7.7,0,15.4,0,23.2,0c0,21.3,0,42.5,0,63.8c4.7,0,9.3,0,14,0c0,5.3,0,10.7,0,16
			c-12.4,0-24.8,0-37.1,0C189.6,148.1,189.6,121.5,189.6,94.9z"/>
		<path id="path3027" class="st2" d="M255.5,94.9c10.2-0.1,20.4,0,30.6,0.5c5.4,0.4,11,0.8,15.8,3.5c4.3,2.6,7,7.5,7,12.5
			c0.7,13.9,0.3,27.8,0.3,41.7c-0.3,5.7,0.3,12.4-3.8,17c-4.6,4.2-11.3,4.4-17.2,4.7c-10.9,0.1-21.8,0-32.7,0
			C255.5,148.1,255.5,121.5,255.5,94.9 M278.6,108.6c0,17.5,0,35,0,52.6c2.2-0.5,5.6,0,6.5-2.6c1.4-5.8,0.6-11.8,0.8-17.6
			c-0.2-9.6,0.4-19.3-0.3-28.9C285.3,108.6,281.2,108.7,278.6,108.6z"/>
		<path id="path3029" class="st2" d="M315,94.9c7.7,0,15.4,0,23,0c0,19.4,0,38.8,0,58.2c0,2.6,0,5.2,0.5,7.7
			c0.4,2.9,5.5,2.8,5.7-0.1c0.5-2.5,0.5-5.1,0.5-7.6c0-19.4,0-38.7,0-58.1c7.7,0,15.4,0,23,0c0,18.6,0.1,37.3,0,55.9
			c-0.2,5.1,0.3,10.8-2.7,15.2c-3.6,6.1-10.7,9.2-17.5,9.9c-8.6,1-18,0-25.3-5.2c-4.6-3.2-6.9-8.8-6.9-14.3
			C314.7,135.9,315.1,115.4,315,94.9z"/>
		<path id="path3031" class="st2" d="M372.6,94.9c16.9,0,33.8,0,50.7,0c0,5.3,0,10.7,0,16c-4.6,0-9.2,0-13.7,0c0,21.3,0,42.5,0,63.8
			c-7.7,0-15.5,0-23.2,0c0-21.3,0-42.5,0-63.8c-4.6,0-9.1,0-13.7,0C372.6,105.6,372.6,100.2,372.6,94.9z"/>
		<path id="path3033" class="st2" d="M427.5,94.9c7.1,0.1,14.2-0.2,21.3,0.1c4.4,14.3,9.1,28.5,13.7,42.8c1,3.5,2.8,7,2.6,10.7
			c-0.1,8.8,0,17.7,0,26.5c-7.1,0-14.2,0-21.3,0c0-8.5,0-17,0-25.5c0-1.9-0.1-3.8-0.7-5.7C437.8,127.6,432.7,111.3,427.5,94.9z"/>
		<path id="path3035" class="st2" d="M460.7,94.9c7.1,0,14.1,0,21.2,0c-5,15.1-9.9,30.2-14.9,45.4c-3.2-10.1-6.7-20.1-9.6-30.2
			C458.1,104.9,459.7,99.9,460.7,94.9z"/>
		<path id="path3037" class="st2" d="M224.1,114c4.1-1.8,10.1-0.1,10.8,4.8c0.4,5.9,0.5,11.9,0,17.8c-1.2,6.8-12.6,7.1-14.4,0.5
			c-0.9-5.3-0.4-10.7-0.4-16C220,118.3,221.3,115.2,224.1,114 M226.9,117.8c-0.5,6.5-0.3,13.1-0.1,19.6l1.5-0.5
			c0.7-6,0.5-12.2,0.1-18.2C228.1,118.5,227.3,118,226.9,117.8z"/>
		<path id="path3039" class="st2" d="M237.3,114c3.5,0,7,0,10.5,0c0,1.8,0,3.6,0,5.4c-1.4,0-2.8,0-4.2,0c0,1.7,0,3.5,0,5.2
			c1.3,0,2.5,0,3.8,0c0,1.7,0,3.3,0,5c-1.3,0-2.6,0-3.8,0c0,3.9,0,7.7,0,11.6c-2.1,0-4.1,0-6.2,0C237.3,132.2,237.4,123.1,237.3,114
			z"/>
	</g>
	<g class="st4">
		<path class="st2" d="M473.4,167.6c1.5,0,2.7,0.5,3.7,1.4s1.4,2,1.4,3.3s-0.5,2.4-1.5,3.3c-1,0.9-2.2,1.4-3.5,1.4
			c-1.4,0-2.6-0.5-3.5-1.4c-1-0.9-1.5-2-1.5-3.3c0-0.9,0.3-1.8,0.8-2.5c0.5-0.8,1.2-1.3,1.9-1.7C472,167.8,472.7,167.6,473.4,167.6z
			 M473.6,168.5c-1.2,0-2.2,0.4-3,1.1c-0.8,0.8-1.1,1.7-1.1,2.7s0.4,1.9,1.2,2.7c0.8,0.7,1.7,1.1,2.8,1.1c1.1,0,2-0.4,2.8-1.1
			c0.8-0.7,1.2-1.6,1.2-2.7c0-0.7-0.2-1.4-0.6-2s-0.9-1.1-1.5-1.4C474.8,168.7,474.2,168.5,473.6,168.5z M471.3,174.8v-5h2.5
			c0.6,0,1.1,0.1,1.4,0.4c0.3,0.3,0.4,0.6,0.4,1s-0.1,0.7-0.4,0.9c-0.2,0.2-0.6,0.4-1.1,0.5c0.2,0.1,0.4,0.2,0.5,0.3
			s0.3,0.4,0.6,0.9l0.6,1h-1.2l-0.4-0.8c-0.3-0.5-0.5-0.8-0.7-1s-0.5-0.3-0.8-0.3h-0.3v2.1L471.3,174.8L471.3,174.8L471.3,174.8z
			 M472.4,172h0.9c0.4,0,0.7-0.1,0.9-0.2c0.2-0.1,0.3-0.3,0.3-0.5s-0.1-0.4-0.3-0.5c-0.2-0.1-0.5-0.2-0.8-0.2h-1V172L472.4,172
			L472.4,172z"/>
	</g>
</g>
<g id="g24" transform="translate(66.538619,-177.1609)" class="st0">
	<path id="path4-9" class="st5" d="M-19.5,250.3c0.2,0.3,0.4,0.1,0.7,0.1c3.8,0,7.6,0.1,11.4,0c3.4-0.1,6.8,0.2,10.3,0.2
		c1.4,0,2.8-0.2,4.2-0.2c0.4,0,0.7,0.1,0.6,0.6c-0.2,2.7-0.1,5.5-0.2,8.2c-0.2,5.2-0.1,10.3-0.1,15.5c0,0.7-0.1,0.8-0.8,0.7
		c-0.4-0.1-0.7-0.1-1.1-0.1c-2.9,0-5.7-0.1-8.6,0c-2.4,0.1-4.8,0.1-7.2,0.1c-0.7,0-1.5,0.1-2.2,0.1c-0.4,0-0.4,0.2-0.4,0.5
		c0,1.7,0,3.5,0,5.3c0,3.6,0,7.2,0,10.8c0,0.6,0.1,0.8,0.7,0.7c1.9-0.1,3.8,0.1,5.7-0.1c1.6-0.1,3.3,0.1,4.9-0.2
		c1.4-0.2,2.9,0.1,4.3-0.2c0.2-0.1,0.2,0,0.2,0.2c0,0.1,0,0.2,0,0.3c0,3.3,0.1,6.6,0,9.9c-0.1,2.2-0.2,4.4-0.3,6.5
		c-0.1,1.5-0.1,3-0.1,4.5c0,0.6,0.2,1.2,0.2,1.8c0,0.6-0.2,0.7-0.7,0.6c-2.2-0.3-4.5-0.1-6.7-0.1c-1.3-0.1-2.7,0-4.1,0
		c-1.2-0.1-2.4,0.3-3.6,0.1c0.1,0.4,0.1,0.9,0.1,1.3c0,2.4-0.1,4.8,0,7.1c0.2,4.5-0.1,9.1,0.2,13.7c0.2,3.6-0.1,7.2,0.1,10.8
		c0.1,2.1-0.1,4.3,0.2,6.3c0.1,1-0.2,1-1,1.2c-2.5,0.5-5,1-7.5,1.6c-2.2,0.4-4.5,1-6.7,1.5c-2.5,0.5-4.9,1-7.4,1.5
		c-0.6,0.1-1.1,0.2-1.6,0.4c-0.7,0.2-0.9,0.1-0.9-0.7c0-5,0.1-10.1,0-15.2c-0.2-9.2,0.1-18.4-0.2-27.7c-0.1-4,0.1-8-0.1-11.9
		s0.1-7.7-0.1-11.6c-0.2-3.6,0.1-7.3-0.1-10.9c-0.2-3.1,0.1-6.3-0.1-9.4c-0.2-2.9,0.1-5.7-0.1-8.5c-0.2-2.6-0.1-5.2-0.1-7.7
		c0-0.2,0.1-0.4-0.1-0.4c0-2.2,0-4.4,0-6.6c0-0.5,0.2-0.6,0.6-0.6C-31.5,250.3-25.5,250.3-19.5,250.3L-19.5,250.3z"/>
	<path id="path6-2" class="st5" d="M197.6,305.5c0.4,1.6,0,3.3,0.3,5c0,0.1,0,0.1,0,0.2c0.1,2,0.1,3.9,0.2,5.8
		c0.1,2.4,0.2,4.7,0.3,7.1c0.1,1.8,0.2,3.7,0.3,5.6c0.1,1.8,0.2,3.5,0.3,5.3c0.1,1.5,0.2,3,0.3,4.5c0.1,2.3,0.3,4.5,0.4,6.8
		c0.1,1.3,0.1,1.3-1.2,1.3c-2,0.1-3.9-0.1-5.8-0.2c-1.6-0.1-3.2,0-4.8-0.1c-3.5-0.3-6.9-0.1-10.5-0.1c-0.4,0-0.6-0.1-0.6-0.6
		c0-2.2-0.1-4.4,0-6.6c0.3-11.1,0.2-22.3,0.1-33.4c-0.2-15.1,0-30.3-0.1-45.4c0-0.7,0.1-0.8,0.8-0.9c1.4-0.1,2.8-0.4,4.2-0.7
		c1.6-0.3,3.3-0.6,4.9-1c2.2-0.4,4.4-0.8,6.6-1.2c1.5-0.3,3.1-0.4,4.6-0.7c0.2-0.1,0.3,0.1,0.4,0.3c0.8,2.4,1.7,4.8,2.6,7.1
		c1.6,4.4,3.1,8.9,4.6,13.3c1,3,2,5.9,3.1,8.9c1.7,5,3.5,10,5.3,15.1c0.2,0.5,0.3,1,0.6,1.5c-0.3-1.3,0-2.6-0.2-3.8
		c0-0.1-0.1-0.2-0.1-0.3c0.1-1.3-0.1-2.7-0.2-4c-0.1-2.3-0.3-4.6-0.4-6.9c-0.1-1.3-0.1-2.7-0.3-4c-0.2-2.2-0.3-4.4-0.5-6.6
		c-0.1-1.3-0.2-2.6-0.3-3.8c-0.2-1.7-0.3-3.5-0.5-5.3c-0.1-1.2-0.2-2.4-0.3-3.6c-0.2-1.8-0.3-3.5-0.5-5.3c-0.1-0.8-0.2-1.7-0.2-2.6
		c0.1-0.3-0.3-0.7-0.1-1c0.3-0.2,0.8-0.1,1.2-0.1c6.3,0.3,12.7,0.1,19,0.1c0.5,0,1-0.1,1.5-0.1c0.3-0.1,0.4,0.1,0.4,0.4
		c0,0.2,0,0.3,0,0.4c0,28.8,0,57.6,0,86.4c0,1.7,0.1,3.5,0.1,5.2c0,0.4-0.1,0.5-0.5,0.5c-1.4,0.1-2.8,0.4-4.3,0.5
		c-1.1,0.1-2.1,0.2-3.2,0.3c-1.5,0.1-3,0.4-4.4,0.5c-0.9,0.1-1.8,0.2-2.7,0.3c-1.1,0.1-2.1,0.2-3.1,0.3c-0.4,0.1-0.6-0.1-0.7-0.5
		c-1.2-3.5-2.4-6.9-3.6-10.4c-1-2.7-2-5.3-3.1-8c-1.3-3-2.5-6.1-3.6-9.2c-1.3-3.9-2.8-7.7-4.2-11.5
		C198.9,308.9,198.3,307.2,197.6,305.5C197.7,305.5,197.7,305.5,197.6,305.5L197.6,305.5z"/>
	<path id="path8-3" class="st5" d="M78.9,257.1c-2.3,0-4.7,0-7,0.2c-1.1,0.1-2.1,0.1-3.1,0.2c-0.5,0-0.8,0.1-0.8,0.7
		c0,1.8,0.1,3.6-0.1,5.5c-0.2,3.5,0.1,7.1-0.2,10.6c-0.2,2.4,0.1,4.8-0.1,7.2c-0.2,2.7-0.1,5.4-0.1,8.2c-0.2,6.9,0.1,13.8-0.2,20.8
		c-0.2,5.1,0.1,10.3-0.1,15.3c-0.2,4.3,0.1,8.7-0.1,13c-0.2,3-0.1,6-0.1,9c0,0.4,0.1,0.5,0.5,0.5c1.7,0,3.4-0.1,5.2-0.1
		c2.9-0.1,5.9,0,8.9,0c3.2,0,6.4-0.1,9.7-0.1c0.5,0,0.7-0.1,0.6-0.6c-0.1-0.6-0.1-1.3-0.1-2c-0.1-2.4,0.1-4.9-0.1-7.3
		s-0.1-4.8-0.1-7.2c-0.1-3.4-0.2-6.8-0.2-10.3c0-1.3,0-1.3,1.3-1.3c0.3,0,0.4,0.2,0.5,0.4l2.7,10.1c0.9,3.4,1.8,6.7,2.8,10.1
		c1.1,3.7,2,7.5,2.9,11.2c0.1,0.4,0.2,0.6,0.6,0.6c0.7-0.1,1.4-0.1,2.1-0.1c1.7-0.1,3.4-0.2,5-0.3c2-0.1,3.9-0.2,5.8-0.4
		c1.7-0.1,3.5-0.3,5.3-0.4c1.9-0.1,3.8-0.3,5.7-0.3c0.7,0,0.8-0.1,0.6-0.8c-1.1-2.9-2.2-5.9-3.2-8.8c-1.8-4.9-3.8-9.7-5.4-14.6
		c-1.5-4.4-3-8.8-4.3-13.2c-0.1-0.3-0.1-0.6,0.2-0.7c1.6-1.2,3-2.6,4.3-4.1c1.3-1.6,2.5-3.3,3.4-5.2c1.8-3.5,2.4-7.4,2.5-11.3
		c0.1-3.7,0.2-7.4-0.8-11c-0.8-3.3-2.1-6.5-4-9.4c-1.7-2.7-3.9-5.2-6.2-7.5c-2.4-2.3-5-4-8.2-4.9c-3.2-1-6.5-1.2-9.7-1.3
		c-3.2-0.2-6.3-0.1-9.5-0.1C83.6,257.2,81.3,257.1,78.9,257.1L78.9,257.1z M91.6,277.9c1.7,0,3.3,0.5,4.6,1.7
		c1.2,1.1,1.8,2.6,2.3,4.1c0.7,2.5,1,5,1,7.4c0.1,2.5-0.1,4.8-1,7c-1,2.7-2.9,4.5-5.8,5c-0.1,0-0.1,0.1-0.2,0.1
		c-1,0.3-1.2,0.1-1.2-0.9c0.1-2.6-0.1-5.3-0.2-7.9c-0.1-1.8,0.1-3.6-0.1-5.5c-0.3-3.4-0.1-6.9-0.1-10.3C91,278,91,277.9,91.6,277.9z
		"/>
	<path id="path10-7" class="st5" d="M36,256.8c-2.9,0-5,0.2-7.1,0.6c-1.9,0.3-3.8,0.8-5.5,1.7c-2.9,1.3-5.3,3.2-7.5,5.5
		c-1.5,1.7-2.7,3.6-3.8,5.6c-1.2,2.2-2.1,4.6-2.8,7c-1,3.2-1.6,6.5-2,9.9c-0.2,1.6-0.4,3.3-0.6,4.9c-0.2,2.3-0.3,4.6-0.4,7
		c-0.1,1.7,0,3.4,0,5c0,3.1-0.1,6.3,0.2,9.5c0.2,1.9,0.4,3.9,0.6,5.8c0.2,1.6,0.4,3.2,0.7,4.9c0.5,2.7,1.2,5.3,2.1,7.9
		c0.9,2.5,2,4.8,3.4,7c1.2,1.9,2.6,3.6,4.4,5.2c1.2,1.1,2.5,2,3.9,2.8c4,2.2,8.4,2.9,12.9,3.1c1,0,1.8-0.1,2.8-0.1
		c1.7-0.1,3.4-0.3,5-0.6c2.2-0.4,4.5-1.1,6.6-2.1c2.8-1.4,5.2-3.3,7.1-5.8c1.7-2.2,3-4.5,4-7.1c1-2.3,1.6-4.6,2.2-7.1
		c0.4-2,0.8-3.9,1.1-5.9c0.3-1.8,0.5-3.8,0.7-5.6c0.2-2.2,0.3-4.4,0.4-6.7c0.1-1.8,0.1-3.6,0-5.4c-0.1-2.4,0.1-4.8-0.1-7.1
		c-0.1-1.6-0.2-3.1-0.3-4.7c-0.1-1.5-0.3-3-0.4-4.5c-0.2-2.4-0.6-4.6-1-6.9c-0.6-3.2-1.6-6.3-2.9-9.3c-1.7-3.7-4-7-7.3-9.5
		c-1.7-1.3-3.6-2.4-5.7-3.1C43.1,257.3,39.3,256.9,36,256.8z M35.4,275.3c0.7,0,1.4,0.5,1.9,1.3c0.6,1.1,0.8,2.3,1,3.5
		c0.2,1.1,0.2,2.2,0.3,3.2c0.2,1,0.2,2.1,0.3,3.2c0.2,2.1,0,4.1,0.1,6.2c0.3,6.7,0.1,13.4,0.1,20.1c0,2.2,0,4.4-0.1,6.6
		c-0.1,1.6-0.1,3.1-0.2,4.7c-0.2,2.2-0.3,4.5-1.1,6.6c-0.5,1.6-1.7,2.2-3,1.6c-0.9-0.4-1.3-1.2-1.6-2.1c-0.5-1.7-0.7-3.5-0.8-5.2
		c-0.2-2.2-0.3-4.4-0.4-6.6c-0.1-1.6,0-3.3-0.1-4.9c-0.3-6.6-0.2-13.2-0.2-19.8c0-2.1,0-4.1,0.1-6.2c0.1-1.6,0.1-3.2,0.3-4.8
		c0.2-1.7,0.3-3.4,0.8-5.1c0.3-1,0.8-1.8,1.8-2.2C34.9,275.4,35.2,275.3,35.4,275.3L35.4,275.3z"/>
	<path id="path12-0" class="st5" d="M361.6,263c0,3.4-0.1,6.7,0,10.1c0,1.7,0.2,3.5,0.3,5.2c0,0.4-0.1,0.5-0.5,0.5
		c-2.6,0-5.2,0.1-7.8,0.1c-3.3,0.1-6.6,0.1-9.9,0.1c-1,0-1,0-1,1s-0.2,1.9-0.2,2.9c0.3,3.9,0.1,7.8,0.1,11.7c0,0.3,0.1,0.4,0.4,0.4
		c3.6,0,7.2,0.1,10.8-0.1c1.3-0.1,2.7,0,4.1-0.1c0.5-0.1,0.6,0.1,0.6,0.6c0,5.1-0.1,10.2,0,15.3c0,1.3,0.1,2.7,0.1,4.1
		c0,0.3-0.1,0.4-0.4,0.4c-3.3,0-6.6,0.1-9.9-0.1c-1.6-0.1-3.1,0-4.6-0.1c-0.4,0-0.5,0.1-0.5,0.5c0,2.4-0.1,4.8,0.1,7.3
		c0.1,2.2,0.2,4.5,0.2,6.7c0,0.5,0.2,0.7,0.8,0.8c2.5,0.1,5,0.3,7.6,0.4c1.4,0.1,2.8,0.2,4.3,0.3c1.7,0.1,3.4,0.1,5.1,0.2
		c0.3,0,0.3,0.2,0.3,0.4c0,1,0.1,2-0.1,3.1c-0.1,0.4,0,0.8,0,1.2c-0.2,7.3-0.1,14.6-0.1,22c0,0.4-0.1,0.6-0.6,0.6
		c-1.7-0.2-3.4-0.2-5-0.4c-0.7-0.1-1.3-0.1-2-0.1c-1.5-0.2-3.1-0.2-4.6-0.3c-2-0.2-4-0.2-6.1-0.5c-0.6-0.1-1.3-0.1-1.9-0.1
		c-1.5-0.2-3.1-0.2-4.6-0.3c-2-0.2-4.1-0.4-6.1-0.5c-0.8-0.1-1.7-0.1-2.5-0.2c-2.6-0.1-5.2-0.4-7.8-0.4c-0.4,0-0.6-0.2-0.6-0.6
		c0-2.2,0.1-4.4,0.2-6.6c0.1-1.9,0.2-3.8,0.3-5.7c0.1-2,0.2-3.9,0.3-5.8c0.1-1.2,0-2.5,0.1-3.6c0.3-4.5,0.2-9,0.1-13.6
		c-0.1-4.4,0.1-8.7-0.1-13.1c-0.2-3.7,0.1-7.4-0.1-11.1c-0.2-4.6,0.1-9.2-0.2-13.7c-0.2-3.8,0.1-7.5-0.1-11.2
		c-0.2-4.3-0.1-8.5-0.1-12.7c0-0.6-0.1-1.1-0.1-1.7c0-0.4,0.1-0.6,0.6-0.6c2.2,0,4.3-0.3,6.4-0.6c1.7-0.2,3.3-0.3,5-0.5
		c1.8-0.2,3.8-0.5,5.6-0.7c1-0.1,2-0.2,3-0.3c1.6-0.2,3.2-0.3,4.9-0.5c1-0.1,2.1-0.2,3.1-0.3c1.8-0.2,3.7-0.3,5.5-0.5
		c0.6-0.1,1.2-0.1,1.7-0.1c1.8-0.1,3.6-0.3,5.4-0.3c0.5,0,0.6,0.1,0.6,0.6C361.5,255.9,361.6,259.4,361.6,263L361.6,263z"/>
	<path id="path14-9" class="st5" d="M162.2,295.4c0,3-0.1,6.1,0,9.1c0.2,4-0.1,8.1,0.2,12c0.1,2.9-0.1,5.7,0.1,8.5
		c0.2,3.9-0.1,7.8,0.2,11.7c0.2,3.6,0,7.2,0.1,10.9c0,0.5-0.1,0.7-0.6,0.6c-4.3-0.3-8.5-0.2-12.7-0.1c-2.7,0.1-5.4,0-8,0.1
		c-1.1,0.1-2.1,0.1-3.2,0.1c-0.3,0-0.4-0.1-0.4-0.4c0-4.5-0.1-9.1,0.1-13.7c0.1-3.6,0.2-7.2,0.1-10.7c-0.2-8,0.1-16-0.1-24
		c-0.2-6.1,0-12.1-0.1-18.2c0-0.4-0.1-0.6-0.6-0.6c-3.2,0-6.4,0-9.5,0.1c-0.8,0-1.7,0.1-2.5,0.1c-0.4,0-0.6-0.2-0.4-0.5
		c0.2-0.4,0.1-0.9,0.1-1.4c0-3.9,0.1-7.7,0-11.5c-0.1-2.8-0.1-5.6-0.1-8.5c0-0.6-0.1-1.2-0.1-1.8c0-0.4,0.1-0.6,0.4-0.5
		c1.5,0.2,3,0.2,4.5,0.4c0.7,0.1,1.3,0.1,2.1,0.1c1.6,0.2,3.2,0.2,4.8,0.3c2.5,0.2,4.9,0.4,7.4,0.6c1.7,0.1,3.4,0.2,5.2,0.4
		c2.2,0.2,4.5,0.3,6.8,0.6c1.6,0.1,3.2,0.3,4.8,0.4c2,0.2,4.1,0.3,6.1,0.6c1.8,0.2,3.5,0.3,5.3,0.5c1.1,0.1,2.1,0.3,3.2,0.4
		c0.2,0,0.3,0.2,0.2,0.3c-0.3,1.5-0.1,2.9-0.1,4.3c-0.3,6.3-0.1,12.7-0.1,19c0,0.3,0,0.5-0.4,0.5c-2,0-4,0.1-5.9-0.1
		c-2-0.2-3.9,0-5.9-0.1c-0.4,0-0.6,0.1-0.6,0.6C162.2,288.7,162.2,292,162.2,295.4L162.2,295.4z"/>
	<path id="path16-5" class="st5" d="M316.3,285.2c-1.5,0-2.7,0-4.1,0c-1.7,0-3.3,0.1-5,0c-1.5-0.1-2.9-0.1-4.3-0.1
		c-0.4,0-0.6,0.1-0.6,0.5c0,8.4-0.1,16.8,0.1,25.2c0.1,4.1-0.1,8.3,0.1,12.4c0.2,3.2-0.1,6.6,0.1,9.8c0.2,4.1-0.1,8.2,0.2,12.3
		c0.1,2.7,0,5.4,0.1,8.1c0,0.6-0.2,0.7-0.7,0.7c-3.9-0.3-7.8-0.2-11.7-0.1c-2.5,0.1-5,0-7.5,0.1c-1.1,0.1-2.1,0.1-3.1,0.1
		c-0.4,0.1-0.6-0.2-0.5-0.6c0.2-0.7,0.1-1.5,0.1-2.2c0-14.1,0.1-28.1-0.1-42.2c-0.1-6.8,0-13.5-0.1-20.3c0-0.4-0.2-0.9-0.2-1.4
		c0.1-0.3-0.2-0.2-0.4-0.2c-0.7,0-1.5,0.1-2.2,0.1c-3.6,0.1-7.1,0-10.7,0.1c-0.6,0-0.7-0.3-0.6-0.7c0.1-0.3,0.1-0.7,0.1-1
		c0-3.8,0.1-7.7,0-11.5c-0.1-2.9-0.1-5.8-0.1-8.6c0-0.6-0.1-1.3-0.1-1.9c0-0.2-0.1-0.4,0.2-0.3c0.6,0.1,1.1-0.2,1.6-0.2
		c2.1,0.1,4.3-0.1,6.3-0.2c1.3-0.1,2.6,0.1,3.9-0.1c1.2-0.2,2.5,0,3.8-0.1c1.3-0.2,2.6,0,3.9-0.1c1.3-0.2,2.5,0,3.8-0.1
		c1.4-0.2,2.7,0,4.1-0.1c1.3-0.2,2.5,0,3.8-0.1c1.4-0.2,2.7,0,4.1-0.1c1.3-0.2,2.7,0,4.1-0.1c1.4-0.2,2.9,0,4.3-0.1
		c1.5-0.2,2.9,0,4.3-0.1c0.8-0.1,1.6-0.1,2.4-0.1c0.4,0,0.5,0.1,0.6,0.5c0.1,2.3-0.1,4.6-0.2,6.9c-0.1,1.5,0,2.9-0.1,4.3
		c-0.3,3.6-0.1,7.2-0.1,10.8C316.1,284.5,316.1,284.8,316.3,285.2L316.3,285.2z"/>
	<path id="path18-7" class="st5" d="M238.6,322.9c0-9.2,0.1-18.4-0.1-27.6c-0.1-4.6,0.1-9.2-0.1-13.9c-0.1-3.2,0.1-6.4-0.1-9.6
		c-0.2-3.2,0-6.4-0.1-9.6c0-0.6-0.2-1.2-0.1-1.8c0-0.3,0.1-0.4,0.3-0.3c0.1,0,0.3,0,0.4,0c7.4,0,14.8,0,22.2,0
		c0.6,0,1.2-0.1,1.8-0.1c0.4-0.1,0.6,0.1,0.6,0.6c0,3.5-0.1,7.1,0,10.6c0.2,5.4-0.1,10.9,0.1,16.4c0.2,6.2-0.1,12.5,0.1,18.7
		c0.2,7.8-0.1,15.6,0.2,23.4c0.1,4.3-0.1,8.5,0.1,12.8c0.1,2.9,0,5.8,0.1,8.8c0,0.5-0.1,0.6-0.6,0.6c-8.1,0-16.1,0-24.2,0
		c-0.5,0-0.6-0.1-0.6-0.6C238.6,341.7,238.6,332.3,238.6,322.9L238.6,322.9z"/>
</g>
<g id="layer101" class="st0">
	<path class="st2" d="M413.9,104.6v7.5H424c5.5,0,10.7,0.1,11.6,0.2l1.5,0.3V151h22v-38.5l1.6-0.3c0.8-0.1,6-0.2,11.4-0.2h9.8v-7.5
		H413.9z M393,135.6l-11.2-4.6c-6.1-2.5-11.3-4.5-11.5-4.5c-0.2,0-0.3,5.5-0.3,12.2V151h23.2l-0.1-7.7L393,135.6z M392.8,87
		c-0.2,0.2-2.9,4.2-5.9,8.9l-5.5,8.5l-35.9,0.4l20.1,7.8c11,4.4,21.7,8.6,23.8,9.4c2.1,0.9,3.8,1.6,3.9,1.6c0,0,0.1-8.3,0.1-18.5
		C393.2,92.8,393.1,86.7,392.8,87z M279.9,107.6c-0.7,1.3-0.8,2.1-0.7,20.7c0.1,18.7,0.2,19.4,1,20.3c0.5,0.5,1.4,1.3,2.1,1.7
		c1.2,0.7,2.6,0.8,25.2,0.8h23.9v-7.5h-14.8c-13.2,0-14.8-0.1-15.6-0.7c-0.7-0.6-0.7-1.4-0.7-5.8v-5.1h31.1v-7.9h-14.9
		c-8.2,0-15.2-0.1-15.6-0.2c-0.5-0.2-0.7-1.1-0.7-5.5c0-3.5,0.2-5.4,0.5-5.8c0.4-0.4,4.4-0.5,15.6-0.5h15.1v-7.5l-24.2,0.1
		C280.3,104.8,281.7,104.6,279.9,107.6z M205,107.1c-6.2,2.5-12.5,8.2-15.1,13.5c-2.4,5-2.1,11.3,1,16.1
		c3.7,5.9,11.6,11.6,18.6,13.5c2.4,0.6,6.7,1.2,7.7,1c0.5-0.1,8.2-0.2,17.1-0.2h16.3v-8.7h-15.8c-15.2,0-15.9,0-17.6-0.9
		c-1.2-0.6-2.2-1.5-2.8-2.6c-1-1.7-1-1.9-1-11.1c0-8.8,0-9.4,1-11.2c0.7-1.4,1.4-2.1,2.8-2.8c1.8-0.9,2.1-0.9,17.7-0.9h15.9v-8.3
		h-18C212.5,104.6,210.8,104.7,205,107.1z M164.2,138.4c-2.8-5-5.8-10.5-6.8-12.2c-1.9-3.3-2.3-4.1-6.6-11.9
		c-3.1-5.6-5.2-7.9-8.9-9.6c-2.1-1-2.9-1.1-6.5-1.1c-3.6,0-4.4,0.1-6.4,1.1c-3.7,1.7-5.1,3.2-8.3,9.2c-1.7,3-3.4,6.1-3.8,6.9
		c-1.2,2.2-15.4,28.3-16,29.4l-0.5,1l12.7-0.2l2.9-5.4l29-0.2l1.3,2.9l1.3,2.9h23.7l-1-1.7C169.7,148.3,167,143.4,164.2,138.4z
		 M130.2,137.3h-9.5l1.4-2.6c0.8-1.5,3-5.5,4.9-9.1l3.5-6.5l4.6,8.8c2.6,4.8,4.6,8.9,4.6,9.1C139.7,137.2,135.5,137.3,130.2,137.3z
		 M31.8,105c-0.8,0.2-1.9,0.9-2.4,1.5c-0.8,1-0.8,1.5-0.8,22.8V151h21.6v-19.1h31.1v-8.3H50.1v-5.1c0-4.9,0-5.2,0.9-5.8
		c0.8-0.6,3-0.7,15.6-0.7h14.6v-7.5H57.3C42.2,104.6,32.8,104.7,31.8,105z"/>
</g>
<g class="st0">
	<path class="st5" d="M28.6,155.8h67.1l0.4-1.4c0.8-3.2,2.3-9.2,2.3-9.4c0-0.1-10.8-0.2-24.1-0.2c-13.2,0-24.1-0.1-24.1-0.2
		c0-0.2,0.6-2.7,1.6-6.3l0.4-1.4l22.6-0.1l22.6-0.1l1-4c0.6-2.2,1.1-4.4,1.3-5l0.3-1.1H77.3c-12.4,0-22.6-0.1-22.6-0.3
		c0-0.2,0.3-1.5,0.7-3l0.7-2.7l24-0.2l24-0.2l1.3-4.7c0.7-2.6,1.3-5,1.3-5.4c0-0.6-1.8-0.7-33.1-0.7H40.5L28.6,155.8z"/>
	<path class="st5" d="M130.7,126c0.9,0.7,1.8,0.8,10,1.1c28.3,0.9,31.1,1.1,33.1,1.6c3.1,0.8,5.2,2,6.3,3.6
		c1.9,2.8,1.6,8.9-0.6,13.6c-2.7,5.6-8,9-15.7,10c-6.4,0.8-43.7,0.6-48.8-0.3c-8.3-1.4-10.8-4.4-9.7-11.2c0.2-1.5,0.5-3,0.6-3.3
		c0.2-0.6,0.9-0.7,9.2-0.7h9l0.2,1.7c0.2,0.9,0.5,1.9,0.7,2.3c0.8,1,5.8,1.4,20,1.4c12.1,0,13.2-0.1,14.7-0.8c1.7-0.8,3-2.8,2.5-4.2
		c-0.5-1.6-1.6-1.8-18.8-2.4c-25.2-0.9-28.5-1.3-31.1-3.5c-0.6-0.6-1.4-1.6-1.7-2.3c-1.1-2.6-0.3-8.1,1.9-13.1
		c1.4-3,4.4-6.1,7.6-7.7c4.2-2,8.3-2.4,28-2.5c16.7-0.1,21.4,0.2,28,1.5c6.8,1.4,9.1,4.4,8,10.9c-0.2,1.4-0.5,2.7-0.6,2.9
		c-0.1,0.2-4.3,0.3-9.3,0.3h-9.1l-0.2-0.9c-0.1-0.5-0.3-1.4-0.4-1.9c-0.4-1.8-1.6-1.9-15.4-1.9c-14.6,0-16.6,0.2-18.3,1.6
		C129.3,123,129.2,124.9,130.7,126z"/>
	<path class="st5" d="M206.3,140.8l-0.9,4h48.3l-1.4,5.5l-1.3,5.5h-33.5c-18.4,0-33.5-0.1-33.5-0.3c0-0.2,10.1-40.3,11.3-44.7
		l0.3-1.1l33.3-0.1c31.6-0.1,33.2,0,33.1,0.6c-0.1,0.4-0.4,1.6-0.6,2.6c-0.2,1.1-0.8,3.2-1.2,4.8l-0.8,3l-23.9,0.1l-23.9,0.1l-0.8,3
		l-0.8,2.9h45.3l-1.3,4.9c-0.7,2.7-1.3,5-1.3,5.1c0,0.1-10.2,0.2-22.7,0.2h-22.7L206.3,140.8z"/>
	<path class="st5" d="M341.6,148c-1.9-4.2-6.7-14.5-10.7-23l-7.2-15.4l-11.8,0h-11.8l-16.3,16.7c-8.9,9.2-19.1,19.6-22.5,23.1
		l-6.2,6.4h21.1l7.4-8h36.7l1.9,4l1.9,4h10.4c5.8,0,10.5-0.1,10.5-0.2S343.5,152.1,341.6,148z M305,136.9h-10.7l4.5-4.8
		c2.5-2.7,5.8-6.1,7.4-7.6l2.8-2.7l3.2,7.2c1.8,4,3.3,7.4,3.3,7.6C315.6,136.7,310.8,136.9,305,136.9z"/>
	<path class="st5" d="M481.9,116.2c0.1,0.1-10.9,5.6-24.4,12.4L433,140.6l0.2,1.4c0.4,2.7,2.6,37.2,2.4,37.5
		c-0.1,0.1-7.6-5.2-16.6-11.9l-16.4-12.1l-13.9,6.8c-28.1,13.8-35.3,17.3-35.3,17.1c0-0.2,6.4-9.1,19.4-26.9
		c4.7-6.5,8.6-12,8.6-12.1c0-0.2-7.3-5.7-16.3-12.2c-8.9-6.6-16.3-12.1-16.3-12.3c0-0.2,10.9-0.2,25.3,0l25.3,0.3l11.6-15.8
		c6.4-8.7,12.9-17.6,14.4-19.7l2.8-3.8l0.3,1.3c0.2,0.7,0.8,8.8,1.4,18c0.6,9.2,1.2,17.4,1.3,18.3l0.2,1.6h-31l-0.2,1.4
		c-0.5,2.8-1.4,5.6-2.8,8.4c-1.7,3.5-5.5,7.4-11,11.5c-2.2,1.6-3.8,2.9-3.7,2.9c0.1,0,20.2-5,44.7-11
		C474.5,117.6,481.6,115.9,481.9,116.2z"/>
</g>
<g>
	<g>
		<path class="st6" d="M93.6,93.2l-17,12c-5.5-8.1-14.9-13.3-25.3-13.3c-17,0-30.8,14.1-30.8,31.3c0,6.5,2.1,12.8,5.5,17.7l-17,12
			C3.4,144.5,0,134.1,0,123.2C0,94.2,23.2,71,51.6,71C68.8,71,84.2,79.9,93.6,93.2"/>
		<path class="st6" d="M99.1,103.1l-17.7,12.5l-29.2,20.6h27.4c-5,10.7-15.6,18.3-28.2,18.3c-6.5,0-12.5-2.1-17.5-5.5l-17.7,12.5
			c9.1,8.6,21.6,14.1,34.9,14.1c28.4,0,51.6-23.5,51.6-52.2C103,116.1,101.4,109.3,99.1,103.1"/>
	</g>
	<g>
		<polygon class="st6" points="443.6,151.5 412.9,151.5 412.9,102.8 420.2,102.8 420.2,144.9 443.6,144.9 		"/>
		<path class="st6" d="M482.5,134.8c0,3.2-0.8,6.2-2.3,8.7s-3.6,4.5-6.2,6c-2.6,1.3-5.5,2.1-8.8,2.1c-3.2,0-6.2-0.8-8.7-2.1
			c-2.6-1.3-4.7-3.4-6.2-6c-1.5-2.4-2.3-5.5-2.3-8.7v-32h7.3v31.6c0,2.1,0.4,4,1.1,5.5c0.8,1.7,1.9,2.8,3.4,3.8
			c1.5,0.9,3.2,1.3,5.3,1.3s3.8-0.4,5.3-1.3c1.5-0.9,2.6-2.1,3.4-3.6c0.8-1.7,1.1-3.4,1.1-5.6v-31.6h7.3L482.5,134.8L482.5,134.8z"
			/>
		<path class="st6" d="M517.5,137.4c0-1.5-0.4-2.8-0.9-4c-0.6-1.1-1.5-1.9-2.8-2.6c-1.1-0.6-2.6-0.9-4.3-0.9H498v14.9h11.5
			c1.7,0,3-0.4,4.3-0.9c1.1-0.8,2.1-1.5,2.8-2.6C517.2,140.2,517.5,138.9,517.5,137.4 M516.8,116.3c0-1.5-0.4-2.6-0.9-3.8
			c-0.8-1.1-1.5-1.9-2.8-2.4c-1.1-0.6-2.4-0.8-4.1-0.8h-10.7v13.9h10.7c2.4,0,4.3-0.6,5.6-1.9C516,120.3,516.8,118.6,516.8,116.3
			 M524.9,137.8c0,3-0.6,5.5-1.9,7.5c-1.1,2.1-3,3.6-5.1,4.7c-2.1,1.1-4.7,1.7-7.5,1.7h-19.6v-48.9h18.8c3,0,5.5,0.6,7.7,1.7
			s4,2.6,5.1,4.7s1.9,4.3,1.9,7.2c0,1.7-0.4,3.2-0.9,4.7c-0.6,1.3-1.3,2.6-2.4,3.6c-0.9,0.9-2.1,1.7-3.2,2.1
			c2.1,0.8,3.8,2.3,5.3,4.1C524.1,132.5,524.9,134.8,524.9,137.8"/>
		<path class="st6" d="M397.7,144.2c-1.1,0.8-2.8,0.9-4.5,0.9c-1.3,0-2.8-0.2-4-0.8c-1.3-0.6-2.3-1.1-3.2-2.1
			c-1.1-1.3-1.9-3-2.3-4.9s-0.6-5.3-0.6-10.2c0-2.6,0-4.7,0.2-6.2c0-1.5,0.2-3,0.4-4.1c0.2-1.1,0.4-2.1,0.8-2.8
			c0.4-0.8,0.8-1.3,1.5-2.1c0.9-0.9,1.9-1.7,3.2-2.1c1.3-0.6,2.4-0.8,4-0.8c1.9,0,3.4,0.4,4.5,0.9c0.9,0.4,1.9,1.1,3,2.3l0,0l5.8-4
			c-1.9-1.9-4-3.4-6-4.3c-2.1-0.9-4.5-1.3-7.3-1.3c-2.4,0-4.7,0.4-7,1.3c-2.1,0.9-4,2.1-5.6,3.8c-1.1,1.1-2.1,2.4-2.6,3.8
			c-0.6,1.3-1.1,2.6-1.3,4c-0.2,1.5-0.4,3-0.6,4.7c0,1.7-0.2,4.1-0.2,7c0,3.8,0,6.8,0.2,8.8c0.2,2.1,0.6,4,1.1,5.6
			c0.8,1.7,1.7,3.4,3.2,4.9c1.1,1.1,2.3,2.1,3.6,2.8s2.8,1.3,4.3,1.9c1.5,0.4,3,0.6,4.7,0.6c1.9,0,3.8-0.2,5.3-0.8
			c1.5-0.4,3-1.1,4.3-2.1s2.6-1.9,3.8-3l-5.6-4.1C399.5,142.9,398.6,143.6,397.7,144.2z"/>
		<path class="st6" d="M190.5,134.2l-4.1-13l-4.3,13H190.5L190.5,134.2z M208.1,151.5h-12.4l-2.3-7.3h-14.9l-2.3,7.3h-12.4
			l17.5-48.9h9.2L208.1,151.5L208.1,151.5z"/>
		<polygon class="st6" points="254.6,151.5 242.8,151.5 242.8,128.2 236,140.2 228.3,140.2 221.5,128.2 221.5,151.5 209.6,151.5 
			209.6,102.8 221.3,102.8 232,124.2 243,102.8 254.6,102.8 		"/>
		<polygon class="st6" points="293.8,151.5 261,151.5 261,102.8 293.8,102.8 293.8,113.3 272.7,113.3 272.7,121.6 290.8,121.6 
			290.8,132.1 272.7,132.1 272.7,140.8 293.8,140.8 		"/>
		<path class="st6" d="M322.6,118.4c0-0.9-0.2-1.7-0.6-2.4c-0.4-0.8-0.9-1.3-1.9-1.9s-1.7-0.8-2.8-0.8h-6.8v9.8h6.8
			c1.1,0,1.9-0.2,2.8-0.8s1.3-1.1,1.9-1.9C322.4,120.1,322.6,119.3,322.6,118.4L322.6,118.4L322.6,118.4z M336.9,151.5h-13.7
			l-8.5-18.3h-4v18.3h-11.9v-48.9h19c3.4,0,6.4,0.8,8.8,2.3c2.4,1.5,4.3,3.4,5.6,5.8c1.3,2.4,1.9,4.9,1.9,7.7c0,3-0.8,5.6-2.3,7.9
			s-3.4,3.8-5.5,4.9L336.9,151.5L336.9,151.5z"/>
		<path class="st6" d="M145.7,123.5v9.8h6.6v0.6c0,0.9-0.2,1.9-0.4,3c-0.2,0.9-0.8,1.7-1.3,2.3c-0.6,0.8-1.3,1.1-2.1,1.3
			c-0.8,0.4-1.7,0.4-2.8,0.4c-2.1,0-3.6-0.8-4.5-2.1c-0.4-0.6-0.8-1.1-0.9-1.9s-0.4-1.9-0.6-3.4c-0.2-1.5-0.2-3.8-0.2-6.6
			c0-2.8,0-5.1,0.2-6.6c0.2-1.5,0.4-2.6,0.6-3.4c0.2-0.8,0.6-1.3,0.9-1.9c1.1-1.3,2.6-2.1,4.5-2.1c1.3,0,2.6,0.2,3.6,0.8
			c0.6,0.2,1.1,0.8,1.7,1.3l0,0l9.4-6.6c-2.1-2.3-4.3-3.8-6.4-4.5c-2.1-0.9-4.9-1.3-8.3-1.3c-2.8,0-5.3,0.4-7.3,1.3s-4,2.3-5.8,4.1
			c-2.1,2.1-3.4,4.5-4,7.2c-0.6,2.6-0.9,6-0.9,10.2v1.7v1.7c0,4.1,0.2,7.5,0.9,10.2c0.6,2.6,1.9,5.1,4,7.2c3.6,3.6,7.9,5.5,13.2,5.5
			c5.5,0,9.8-1.9,13.5-5.5c1.7-1.7,3-4,3.6-6.4c0.8-2.4,0.9-5.6,0.9-9.6v-6.4L145.7,123.5L145.7,123.5z"/>
		<path class="st6" d="M370.9,130.3c-0.6-1.7-1.5-3.2-2.6-4.3c-2.1-2.1-5.3-3.4-9.4-4l-5.6-0.8c-1.3-0.2-2.4-0.8-3.2-1.3
			c-0.6-0.8-0.9-1.3-0.9-2.3c0-1.1,0.4-2.3,1.5-3c0.9-0.9,2.4-1.3,4.3-1.3c2.1,0,3.8,0.2,5.1,0.4c0.9,0.2,1.7,0.6,2.4,1.1l0,0
			l8.8-6.2c-1.9-2.1-4.3-3.4-7-4.3c-2.6-0.9-5.6-1.3-9.2-1.3s-6.6,0.8-9.2,1.9c-2.6,1.3-4.5,3-6,5.5c-1.3,2.3-2.1,4.9-2.1,7.7
			c0,4.1,1.1,7.3,3.2,9.6s5.3,3.8,9.6,4.3l5.6,0.8c1.5,0.2,2.4,0.6,3.2,1.3c0.6,0.8,0.9,1.7,0.9,2.8c0,2.8-2.3,4.3-6.8,4.3
			c-2.1,0-4.1-0.2-6-0.8c-1.1-0.4-2.3-0.8-3.2-1.3l0,0l-9,6.4c2.3,2.3,4.9,4,7.7,4.9c3,0.9,6.4,1.3,10.4,1.3c3.4,0,6.4-0.6,9.2-1.7
			s5.1-3,6.6-5.3s2.4-5.1,2.4-8.1C371.9,134,371.7,131.9,370.9,130.3z"/>
	</g>
</g>
</svg>
