<svg id="Camada_1" data-name="Camada 1" xmlns="http://www.w3.org/2000/svg" viewBox="0 0 3680.77 530.29">
  <g>
    <polygon points="204.37 309.85 25.52 6.77 0 6.77 206.55 344.47 408.8 6.77 385.41 6.77 204.37 309.85"/>
    <polygon points="195.66 380.41 194.83 523.34 213.97 523.34 215.44 380.41 206.55 364.25 195.66 380.41"/>
    <path d="M951.84,47.39q-43.85-40-123-40H667.4V26.65l161.45,0q70,0,108.79,35T976.46,159q0,60.3-38.82,94T828.85,286.73L667,287l.4,237.13h19.14V305.91H831.33q78.76-.74,121.54-39.06t42.78-108.59Q995.65,87.27,951.84,47.39Z" transform="translate(-0.23 -0.66)"/>
    <path d="M1403.56,249q32.85-39.62,32.83-92.47,0-68.83-45.94-108.94T1266.78,7.43H1102.11v516.7h19.19V26.62h144q70.62,0,111.27,34.76t40.64,95.1q0,55-36.74,91.23-35.22,34.72-91.51,36.13V284l148.82,240.13h20.23v-4.94L1320,298.1Q1370.79,288.53,1403.56,249Z" transform="translate(-0.23 -0.66)"/>
    <path d="M1852.51,28.55Q1813,3.54,1763,.73V19.88q71.88,4.22,115.57,56.24,47.54,56.59,47.57,150.28v75.26q0,97.54-47.23,154-43.58,52.16-115.91,56.1v19.18q50.36-2.67,90-27.9,44.35-28.18,68.29-79.81t23.93-118.73V227.14q0-66.39-24.13-118.38T1852.51,28.55Z" transform="translate(-0.23 -0.66)"/>
    <path d="M1579.6,108.61q-24,51.77-23.94,118.53v74.52q0,105.4,53.9,167.48,50,57.45,128.44,61.76V511.69q-45.29-2.74-80.17-25.14-39.69-25.59-61.17-72.94t-21.51-109.13V228.87q0-96.87,47.57-153.1,43.88-52,115.28-55.94V.69q-50.13,2.67-89.92,27.86Q1603.58,56.81,1579.6,108.61Z" transform="translate(-0.23 -0.66)"/>
    <path d="M2043.58,381.87h-19.14q0,72,38.33,110.71,35,35.25,98.23,38.36V511.75q-55.66-3-84.93-33.21Q2043.58,445,2043.58,381.87Z" transform="translate(-0.23 -0.66)"/>
    <path d="M2303.39,370.84q-1.11,65.27-37.09,103.25-32,33.71-80.3,37.49v19.27q58.77-3.81,95.73-44.15,40.8-44.51,40.79-119.42V7.43h-19.13Z" transform="translate(-0.23 -0.66)"/>
    <polygon points="2462.48 523.47 2776.88 523.47 2776.88 504.34 2481.62 504.34 2481.62 25.96 2776.88 25.96 2776.88 6.77 2462.48 6.77 2462.48 523.47"/>
    <rect x="2554.77" y="248.09" width="155" height="19.18"/>
    <path d="M2879.67,109.1q-23.07,52-23,118V307q.38,66,23.78,117.29t65.82,79.12q37.89,24.92,85.77,27.56V511.7q-42.63-2.74-76.52-25.89-38.58-26.26-59.09-73.29t-20.58-108v-76q0-95.46,46.29-152.25Q2964.75,24,3032,19.85V.69q-48.26,2.69-86.46,28.06Q2902.75,57.16,2879.67,109.1Z" transform="translate(-0.23 -0.66)"/>
    <path d="M3172.46,42.94Q3128.57,3.94,3057,.66V19.82q64.29,3.11,102,36.77,41.53,37.08,49.7,108.44h19.19Q3220.35,85.51,3172.46,42.94Z" transform="translate(-0.23 -0.66)"/>
    <path d="M3159.51,475.52q-37.86,33.21-102.51,36.24V531q72.2-3.26,115.81-42.47,47.54-42.72,55-122.59h-19.19Q3201.24,439,3159.51,475.52Z" transform="translate(-0.23 -0.66)"/>
    <rect x="3473.53" y="65.34" width="19.13" height="458.13"/>
    <rect x="3285.42" y="6.77" width="395.35" height="19.19"/>
  </g>
</svg>
